<?xml version="1.0" encoding="UTF-8"?> <svg xmlns="http://www.w3.org/2000/svg" xmlns:xlink="http://www.w3.org/1999/xlink" version="1.1" id="Calque_1" x="0px" y="0px" viewBox="0 0 384.09 108.28" style="enable-background:new 0 0 384.09 108.28;" xml:space="preserve"> <style type="text/css"> .st0{clip-path:url(#SVGID_00000173124660119540035960000015401872634014889093_);} </style> <g> <defs> <rect id="SVGID_1_" x="11.94" y="11.89" width="360.18" height="84.2"></rect> </defs> <clipPath id="SVGID_00000183956003023574404330000009093380616623494076_"> <use xlink:href="#SVGID_1_" style="overflow:visible;"></use> </clipPath> <path style="clip-path:url(#SVGID_00000183956003023574404330000009093380616623494076_);" d="M212.85,32.85 c0-0.82,0.49-1.33,1.4-1.33s1.4,0.51,1.4,1.33c0,0.82-0.49,1.33-1.4,1.33S212.85,33.67,212.85,32.85 M216.08,39.22 c0,0.18-0.03,0.39-0.07,0.57h1.94c0.07-0.28,0.12-0.6,0.12-0.89c0-1.52-0.84-2.24-2.73-2.24h-2.28c-0.73,0-1.01-0.23-1.01-0.64 c0-0.22,0.09-0.46,0.25-0.7c0.52,0.27,1.19,0.4,1.97,0.4c2.18,0,3.4-1.07,3.4-2.72c0-0.55-0.15-1.04-0.43-1.45l1.37,0.04v-1.81 h-4.34c-2.21,0-3.45,1.14-3.45,2.97c0,0.75,0.21,1.37,0.58,1.85c-0.55,0.61-0.97,1.33-0.97,2.09c0,1.13,0.72,1.73,2.37,1.73h2.27 C215.76,38.43,216.08,38.67,216.08,39.22 M17.61,22.81l2.94-9.95h-2.13l-2.13,8.03l-2.13-8.03h-2.21l2.94,9.95H17.61z M17.4,32.23 v0.14c0,2.13-0.87,3.73-1.91,3.73c-0.76,0-1.17-0.69-1.17-2.24c0-1.66,0.66-2.33,1.52-2.33C16.54,31.53,17.13,31.92,17.4,32.23 M17.37,27.86l0.03,2.73c-0.43-0.43-1.28-0.92-2.24-0.92c-1.91,0-2.95,1.4-2.95,4.15c0,2.87,0.92,4.13,2.63,4.13 c1.46,0,2.27-1.15,2.63-2.12l0.3,1.98h1.73v-9.95H17.37z M24.3,12.86c0-0.64-0.43-0.96-1.27-0.96c-0.83,0-1.27,0.31-1.27,0.96 s0.43,0.95,1.27,0.95C23.86,13.81,24.3,13.5,24.3,12.86 M24.07,14.8h-2.09v8.01h2.09V14.8z M25.98,33.58h-2.73 c0.03-1.42,0.49-2.05,1.4-2.05c1,0,1.33,0.82,1.33,2.02V33.58z M24.59,29.67c-2.15,0-3.34,1.43-3.34,4.15 c0,2.85,1.22,4.13,3.7,4.13c1.12,0,2.18-0.24,2.76-0.43v-1.64c-0.6,0.19-1.62,0.42-2.52,0.42c-1.2,0-1.76-0.43-1.9-1.55h4.54 c0.03-0.37,0.06-0.83,0.06-1.24C27.89,30.95,26.8,29.67,24.59,29.67 M28.38,22.95c0.51,0,1.01-0.07,1.42-0.19v-2.07 c-0.21,0.06-0.51,0.14-0.79,0.14c-0.64,0-0.88-0.31-0.88-1v-6.96h-2.09v7.31C26.04,22.02,26.82,22.95,28.38,22.95 M33.55,22.95 c0.51,0,1.01-0.07,1.42-0.19v-2.07c-0.21,0.06-0.51,0.14-0.79,0.14c-0.64,0-0.88-0.31-0.88-1v-6.96h-2.09v7.31 C31.21,22.02,31.98,22.95,33.55,22.95 M40.85,18.58h-2.73c0.03-1.42,0.49-2.05,1.4-2.05c1,0,1.33,0.82,1.33,2.02V18.58z M42.7,19.74c0.03-0.37,0.06-0.83,0.06-1.24c0-2.55-1.09-3.83-3.3-3.83c-2.15,0-3.34,1.43-3.34,4.15c0,2.85,1.22,4.13,3.7,4.13 c1.12,0,2.18-0.24,2.76-0.43v-1.64c-0.6,0.19-1.62,0.42-2.52,0.42c-1.2,0-1.76-0.43-1.9-1.55H42.7z M48.24,96.09 c10.92,0,20.93-1.4,26.53-2.45V83.07c-4.2,0.63-12.04,1.4-17.92,1.4c-10.78,0-15.12-2.38-15.12-8.4c0-3.85,2.59-5.53,9.24-5.53 c7.56,0,17.64,1.68,23.8,2.8V51.85c-5.6-1.05-16.73-2.45-27.79-2.45c-23.73,0-34.79,5.88-34.79,23.31 C12.19,88.81,22.2,96.09,48.24,96.09 M111.3,96.09h29.54v-27.3c0-9.17-4.27-13.3-13.72-13.3c-9.1,0-15.96,5.6-19.32,10.5V49.4 H78.26v46.69h29.54V71.66c0.49-0.77,1.26-1.26,2.03-1.26c1.05,0,1.47,0.77,1.47,2.03V96.09z M160.86,73.97 c0,1.68-0.63,2.52-1.75,2.52s-1.75-0.84-1.75-2.52v-3.22c0-2.66,0.91-3.85,2.66-3.85h0.84V73.97z M164.78,96.09h9.1V66.41 c0-12.81-4.62-17.01-15.12-17.01c-5.95,0-11.55,1.4-14.42,2.45v12.11c3.15-1.12,8.19-2.66,12.67-2.66c2.59,0,3.57,0.49,3.78,1.96 l-2.59,0.63c-9.52,2.24-13.86,7.77-13.86,17.99c0,8.26,2.87,14.21,7.84,14.21c5.11,0,7.77-7.35,8.68-14.63L164.78,96.09z M197.82,96.09h9.1V49.4H193.9v22.05c-0.49,0.77-1.26,1.26-2.03,1.26c-1.05,0-1.47-0.77-1.47-2.03V49.4h-13.02v30.38 c0,11.62,1.75,16.31,6.09,16.31c4.9,0,8.54-8.26,10.43-14.7L197.82,96.09z M215.82,22.8l2.94-9.95h-2.13l-2.13,8.03l-2.13-8.03 h-2.21l2.94,9.95H215.82z M222.51,12.85c0-0.64-0.43-0.95-1.27-0.95c-0.83,0-1.27,0.31-1.27,0.95s0.43,0.95,1.27,0.95 C222.08,13.8,222.51,13.49,222.51,12.85 M222.28,14.79h-2.09v8.01h2.09V14.79z M224.43,29.66c-1.14,0-1.76,0.82-2.24,2.12 l-0.3-1.98h-1.73v8.01h2.09v-3.36c0-1.64,0.78-2.57,2.03-2.57c0.42,0,0.87,0.09,1.19,0.16v-2.19 C225.16,29.73,224.79,29.66,224.43,29.66 M226.6,22.94c0.51,0,1.02-0.07,1.42-0.19v-2.07c-0.21,0.06-0.51,0.13-0.79,0.13 c-0.64,0-0.88-0.31-0.88-1v-6.96h-2.09v7.31C224.26,22.01,225.03,22.94,226.6,22.94 M231.76,22.94c0.51,0,1.01-0.07,1.42-0.19 v-2.07c-0.21,0.06-0.51,0.13-0.79,0.13c-0.64,0-0.88-0.31-0.88-1v-6.96h-2.09v7.31C229.42,22.01,230.2,22.94,231.76,22.94 M231.37,33.52c0,1.48-0.81,2.48-1.75,2.48c-0.6,0-0.99-0.43-0.99-1.06c0-0.81,0.55-1.22,1.82-1.46l0.91-0.17V33.52z M231.72,37.8 h1.73v-5.01c0-2.34-1.09-3.13-3.54-3.13c-1.14,0-2.31,0.25-2.93,0.45v1.76c0.69-0.21,1.73-0.45,2.82-0.45 c1.06,0,1.43,0.19,1.54,0.78l-1.42,0.24c-2,0.34-3.15,1.25-3.15,2.94c0,1.55,0.88,2.57,2.24,2.57c1.34,0,2.12-1,2.43-1.92 L231.72,37.8z M239.06,18.57h-2.73c0.03-1.42,0.49-2.05,1.4-2.05c1,0,1.33,0.82,1.33,2.02V18.57z M240.91,19.73 c0.03-0.37,0.06-0.83,0.06-1.24c0-2.55-1.09-3.84-3.3-3.84c-2.15,0-3.34,1.43-3.34,4.15c0,2.85,1.22,4.13,3.7,4.13 c1.12,0,2.18-0.24,2.76-0.43v-1.64c-0.6,0.19-1.63,0.42-2.52,0.42c-1.19,0-1.76-0.43-1.9-1.55H240.91z M240.6,33.92 c0,1.76-0.64,2.4-1.51,2.4c-0.66,0-1.28-0.46-1.57-0.84v-0.67c0-1.93,0.85-3.03,1.82-3.03C240.15,31.79,240.6,32.44,240.6,33.92 M242.72,33.8c0-2.88-0.92-4.15-2.62-4.15c-1.46,0-2.27,1.15-2.63,2.12l-0.3-1.98h-1.73v10h2.12l-0.03-2.77 c0.43,0.43,1.29,0.92,2.24,0.92C241.67,37.94,242.72,36.54,242.72,33.8 M242.83,49.4c-6.37,0-11.2,8.26-13.86,14.7l-2.52-14.7 h-16.03v46.69h18.55V71.66c0.49-0.77,1.26-1.26,2.03-1.26c1.05,0,1.47,0.77,1.47,2.03v23.66h18.48V71.66 c0.49-0.77,1.26-1.26,2.03-1.26c1.05,0,1.47,0.77,1.47,2.03v23.66H273V65.71c0-11.62-2.38-16.31-8.12-16.31 c-6.3,0-11.27,8.19-13.93,14.56C250.67,53.6,248.29,49.4,242.83,49.4 M253.43,37.8h2.09v-8.01h-2.09V37.8z M246.6,27.85h-2.12v9.95 h2.09v-4.42c0.51-0.9,1.3-1.52,1.97-1.52c0.57,0,0.84,0.34,0.84,1.1v4.84h2.09v-5.52c0-1.85-0.57-2.62-1.8-2.62 c-1.27,0-2.37,0.94-3.12,2.07L246.6,27.85z M250.91,17.36c0,2.14-0.87,3.73-1.91,3.73c-0.76,0-1.16-0.69-1.16-2.24 c0-1.66,0.66-2.33,1.52-2.33c0.69,0,1.28,0.39,1.55,0.7V17.36z M251.27,22.8H253v-9.95h-2.12l0.03,2.73 c-0.43-0.43-1.28-0.92-2.24-0.92c-1.91,0-2.95,1.4-2.95,4.15c0,2.87,0.92,4.13,2.62,4.13c1.46,0,2.27-1.15,2.63-2.12L251.27,22.8z M254.48,26.89c-0.84,0-1.27,0.31-1.27,0.95s0.43,0.95,1.27,0.95c0.83,0,1.27-0.31,1.27-0.95S255.31,26.89,254.48,26.89 M260.22,22.8h1.73v-8.01h-2.09v4.42c-0.51,0.9-1.31,1.57-2.03,1.57c-0.54,0-0.78-0.31-0.78-1.03v-4.95h-2.09v5.54 c0,1.83,0.57,2.61,1.8,2.61c1.28,0,2.4-0.95,3.15-2.12L260.22,22.8z M259.22,32.67c0-0.46,0.36-0.82,1.18-0.82 c0.57,0,1.25,0.13,1.79,0.3v-2.19c-0.45-0.13-1.22-0.3-1.98-0.3c-1.81,0-2.96,1.12-2.96,2.7c0,1.36,0.64,2.09,1.72,2.6l0.73,0.33 c0.55,0.25,0.72,0.4,0.72,0.6c0,0.28-0.25,0.45-0.9,0.45c-0.72,0-1.64-0.24-2.18-0.42v1.63c0.51,0.16,1.55,0.4,2.57,0.4 c1.63,0,2.55-0.7,2.55-2c0-1.01-0.64-1.54-1.74-2.04l-0.73-0.33C259.48,33.33,259.22,33.07,259.22,32.67 M273.57,37.8h2.09v-5.52 c0-1.85-0.54-2.62-1.73-2.62c-1.2,0-2.26,0.94-2.97,2.06c-0.1-1.45-0.66-2.06-1.71-2.06c-1.22,0-2.3,0.97-3.02,2.12l-0.3-1.98 h-1.73v8.01h2.09v-4.42c0.46-0.9,1.21-1.52,1.82-1.52c0.52,0,0.78,0.34,0.78,1.1v4.84h2.09v-4.42c0.46-0.89,1.21-1.52,1.82-1.52 c0.52,0,0.78,0.34,0.78,1.1V37.8z M282.15,33.57h-2.73c0.03-1.42,0.49-2.05,1.4-2.05c1,0,1.33,0.82,1.33,2.02V33.57z M284,34.73 c0.03-0.37,0.06-0.83,0.06-1.24c0-2.55-1.09-3.84-3.3-3.84c-2.15,0-3.34,1.43-3.34,4.15c0,2.85,1.22,4.13,3.7,4.13 c1.12,0,2.18-0.24,2.76-0.43v-1.64c-0.6,0.2-1.62,0.42-2.52,0.42c-1.2,0-1.76-0.43-1.9-1.55H284z M293.02,85.17 c0,1.68-0.63,2.52-1.75,2.52s-1.75-0.84-1.75-2.52V68.02c0-1.68,0.63-2.52,1.75-2.52s1.75,0.84,1.75,2.52V85.17z M306.04,72.71 c0-16.8-3.85-23.31-14.77-23.31c-10.92,0-14.77,6.51-14.77,23.31c0,17.5,3.85,23.38,14.77,23.38 C302.19,96.09,306.04,90.21,306.04,72.71 M326.06,96.09h13.02V65.71c0-11.62-1.75-16.31-6.09-16.31c-4.9,0-8.54,8.26-10.43,14.7 l-2.52-14.7h-10.5v46.69h13.02V71.66c0.49-0.77,1.26-1.26,2.03-1.26c1.05,0,1.47,0.77,1.47,2.03V96.09z M357.35,70.96v-2.52h14.77 v-14h-14.77V49.4h-14.77v29.61c0,11.48,5.25,17.08,15.47,17.08c5.74,0,11.13-1.4,14.07-2.45v-20.3c-2.8,1.12-7.21,2.52-10.57,2.52 C358.54,75.86,357.35,74.39,357.35,70.96"></path> </g> </svg> 