<?xml version="1.0" encoding="UTF-8"?>
<svg xmlns="http://www.w3.org/2000/svg" version="1.1" viewBox="0 0 113.3858 56.6924">
  <!-- Generator: Adobe Illustrator 28.7.1, SVG Export Plug-In . SVG Version: 1.2.0 Build 142)  -->
  <g>
    <g id="Capa_1">
      <g>
        <path d="M48.1395,19.5692c.1086-.3558.3487-.4945.5815-.4945.3426,0,.6695.2617.6261.3571l-1.6153,4.0133c-.123.2836-.2907.4078-.6393.4078-.3414,0-.5019-.1085-.6261-.4078l-1.643-4.0133c-.0447-.0954.3052-.3571.6538-.3571.269,0,.5018.1749.5971.4945l1.0399,3.04,1.0253-3.04Z" fill="#222221"/>
        <path d="M49.7923,19.1471c0-.3197.2172-.5163.5742-.5163s.567.1894.567.5163-.2099.5236-.567.5236-.5742-.1967-.5742-.5236M49.8502,23.3511v-2.6334c0-.3703.1966-.4945.4584-.4945h.1086c.2762,0,.4584.117.4584.4945v2.6334c0,.3716-.1894.4874-.4512.4874h-.1085c-.2691,0-.4657-.1098-.4657-.4874" fill="#222221"/>
        <path d="M51.7054,23.3511v-4.4802c0-.0362.1822-.1159.386-.1159.3052,0,.6394.1593.6394.8216v3.7745c0,.3716-.1894.4874-.4512.4874h-.1085c-.2691,0-.4657-.1098-.4657-.4874" fill="#222221"/>
        <path d="M53.5606,23.3511v-4.4802c0-.0362.1822-.1159.386-.1159.3052,0,.6394.1593.6394.8216v3.7745c0,.3716-.1894.4874-.4512.4874h-.1086c-.269,0-.4656-.1098-.4656-.4874" fill="#222221"/>
        <path d="M57.155,23.155c.538,0,.8347-.24,1.0024-.5235.0072-.0145.4946.0506.4946.4657,0,.3775-.5453.8069-1.5344.8069-1.1569,0-1.9193-.7201-1.9193-1.8396,0-1.0844.7781-1.8842,1.8541-1.8842,1.0471,0,1.7673.7346,1.7673,1.7745v.0723c-.0073.1822-.0579.2835-.2473.2835h-2.444c.0724.5308.4729.8444,1.0266.8444M57.8667,21.7147c-.0217-.4946-.3342-.8215-.8288-.8215-.4801,0-.8444.3414-.9095.8215h1.7383Z" fill="#222221"/>
        <path d="M63.229,18.8707c0-.0361.1809-.1157.3848-.1157.3052,0,.6406.1592.6406.8214v3.7746c0,.3716-.1894.4874-.4512.4874h-.1086c-.2762,0-.4656-.1098-.4656-.4874v-.1158c-.2256.4065-.6261.6683-1.1496.6683-.959,0-1.643-.7491-1.643-1.8613,0-1.1279.6755-1.8626,1.6587-1.8626.5151,0,.93.2328,1.1339.538v-1.8469ZM63.229,21.5692c-.146-.3485-.4512-.5669-.8806-.5669-.5597,0-.9228.4065-.9228,1.0471,0,.6104.3775,1.0398.9083,1.0398.4874,0,.8951-.3413.8951-.8443v-.6757Z" fill="#222221"/>
        <path d="M66.7946,23.155c.538,0,.836-.24,1.0025-.5235.0084-.0145.4946.0506.4946.4657,0,.3775-.5453.8069-1.5345.8069-1.1568,0-1.9192-.7201-1.9192-1.8396,0-1.0844.7781-1.8842,1.8541-1.8842,1.0471,0,1.7672.7346,1.7672,1.7745v.0723c-.0072.1822-.0579.2835-.2472.2835h-2.444c.0735.5308.4728.8444,1.0265.8444M67.5064,21.7147c-.0218-.4946-.3342-.8215-.8288-.8215-.4801,0-.8444.3414-.9095.8215h1.7383Z" fill="#222221"/>
        <path d="M58.6043,27.9816h-11.5613c-.4741,0-.7334.2292-.7334.6563v.0771c0,.4271.2593.6563.7334.6563h2.7034v7.8363c0,.4728.228.7165.6719.7165h.2135c.4584,0,.7033-.2437.7033-.7165v-7.8363h7.2391c2.3837,0,3.8023,1.298,3.8023,3.5429,0,2.2763-1.4042,3.5901-3.818,3.5901h-1.649l.0048-5.0618c0-.4704-.228-.7129-.684-.7129h-.2123c-.4403,0-.6683.2425-.6683.7129l.0024,5.5503c0,.4741.3812.8709.8698.8709h2.3064c3.391,0,5.4369-1.8781,5.4369-4.964s-2.0001-4.9181-5.3609-4.9181M44.3252,27.9213h-.1834c-.4584,0-.6574.2437-.6574.7166v6.812l-4.8868-6.9339c-.2907-.3969-.4741-.5947-.947-.5947h-.2593c-.4886,0-.7492.351-.7492.8842v8.4021c0,.4728.1991.7165.6418.7165h.1677c.4584,0,.6719-.2437.6719-.7165v-7.0414l5.1473,7.285c.2449.3365.3668.4729.8408.4729h.1219c.4584,0,.7322-.3354.7322-.8843v-8.4019c0-.4729-.2135-.7166-.6405-.7166M26.8082,27.89c-.7177,0-.9626.1833-1.0844.5042l-3.5128,9.0727c-.0471.1363.3968.4729.8552.4729.3354,0,.672-.1677.8698-.7178l.871-2.2606h3.9555l.8709,2.2462c.2136.5645.5803.7322.9325.7322.4729,0,.9156-.3511.8698-.4729l-3.5442-9.0727c-.1218-.3209-.351-.5042-1.0833-.5042M25.1882,33.6935l1.6044-4.1835,1.5887,4.1835h-3.1931ZM18.1638,32.1663c-1.374-.3208-2.3367-.4886-2.3367-1.573,0-.9156.8095-1.5115,2.0472-1.5115.854,0,1.6164.322,2.1629.7974.3173.2774,1.2111.2256,1.2111-.339,0-.719-1.1906-1.7564-3.3897-1.7564-2.1087,0-3.5587,1.1906-3.5587,2.871,0,2.0001,1.5888,2.5357,3.116,2.8868,1.3124.3051,2.4741.5657,2.4741,1.6791,0,.9784-.7793,1.5429-2.1545,1.5429-.9891,0-1.8179-.3643-2.4126-.8806-.5851-.6647-1.5935.3112-.9337.9892.5392.62,1.6913,1.1894,3.362,1.1894,2.3065,0,3.7119-1.1291,3.7119-2.9471,0-1.9096-1.6189-2.567-3.2993-2.9482M33.7108,27.9213h-.2147c-.4428,0-.672.2437-.672.7166v8.5697c0,.4728.2292.7165.672.7165h.2147c.4584,0,.6864-.2437.6864-.7165v-8.5697c0-.4729-.228-.7166-.6864-.7166M93.409,32.7622v-3.4826h2.0326c1.45,0,2.1835.5971,2.1835,1.7407,0,1.0701-.6864,1.7419-2.1388,1.7419h-2.0773ZM89.5609,36.4741h-5.0859v-2.9941h3.8651c.4885,0,.7322-.228.7322-.6562v-.0471c0-.4113-.2292-.6249-.7322-.6249h-3.8651v-2.7648h4.9942c.4897,0,.7334-.2292.7334-.6563v-.0928c0-.4114-.2437-.6563-.7334-.6563h-5.7264c-.5043,0-.8396.351-.8396.8855v8.1257c0,.5356.3353.8709.8396.8709h5.8181c.4897,0,.7177-.2436.7177-.6875v-.0761c0-.4125-.228-.626-.7177-.626M66.7144,27.9213h-.2135c-.4427,0-.6719.2437-.6719.7166v8.5697c0,.4728.2292.7165.6719.7165h.2135c.4584,0,.6876-.2437.6876-.7165v-8.5697c0-.4729-.2292-.7166-.6876-.7166M76.5809,36.4898h-5.3923l5.2234-6.3694c.3981-.4729.6418-.8094.6418-1.2678v-.1376c0-.3981-.2751-.7334-1.0085-.7334h-5.9713c-.4572,0-.7033.2136-.7033.6418v.0916c0,.4428.2461.6406.7033.6406h5.087l-5.1787,6.309c-.5042.6261-.6562.8553-.6562,1.3138v.1362c0,.3981.2907.7491,1.0217.7491h6.2331c.4584,0,.7021-.2135.7021-.6417v-.0917c0-.4427-.2437-.6405-.7021-.6405M99.2126,31.0336v-.1858c-.0422-1.8915-1.3233-2.8662-3.6962-2.8662h-2.8095c-.5042,0-.8396.351-.8396.8855v8.2475c0,.5199.2292.8095.6563.8095h.2147c.4572,0,.6864-.2896.6864-.7165v-3.2077h1.0845l2.8963,3.543c.304.4029.6514.4933.9844.2424l.1665-.1254c.3546-.269.3631-.6297.1109-.9615l-2.4005-2.8517c1.8891-.1507,2.9096-1.1846,2.9458-2.8131M79.9706,27.9213h-.2147c-.4427,0-.6719.2437-.6719.7166v8.5697c0,.4728.2292.7165.6719.7165h.2147c.4584,0,.6876-.2437.6876-.7165v-8.5697c0-.4729-.2292-.7166-.6876-.7166" fill="#c52a32"/>
      </g>
    </g>
  </g>
</svg>