<?xml version="1.0" encoding="utf-8"?>
<!DOCTYPE svg PUBLIC "-//W3C//DTD SVG 1.0//EN" "http://www.w3.org/TR/2001/REC-SVG-20010904/DTD/svg10.dtd">
<svg version="1.0" xmlns="http://www.w3.org/2000/svg" width="2760px" height="1540px" viewBox="0 0 2760 1540" preserveAspectRatio="xMidYMid meet">
 <g fill="#f4b235">
  <path d="M1171.40 920.87 c0 -3.01 4.61 -15.24 10.03 -27.08 7.42 -15.85 10.03 -23.87 10.03 -30.49 0 -11.23 3.41 -14.84 13.84 -14.84 l8.22 0 0 9.23 c0 10.03 -9.63 35.30 -21.46 56.56 -6.42 11.43 -7.42 12.44 -13.84 12.44 -6.22 0 -6.82 -0.60 -6.82 -5.82z"/>
  <path d="M952.76 625.81 l0 -140.41 10.63 0 c42.92 0 102.10 19.46 141.21 46.53 69.80 48.14 120.95 140.61 120.95 218.43 l0 15.85 -136.40 0 -136.40 0 0 -140.41z m104.30 71.61 c5.42 -7.62 7.22 -12.24 8.02 -21.06 l1 -11.43 10.63 -0.60 c8.63 -0.60 10.43 -1.20 10.43 -4.41 0 -8.02 2.21 -10.03 10.83 -10.03 4.61 0 10.43 1.40 12.84 3.21 2.41 1.60 4.41 2.41 4.41 1.60 0 -3.41 -5.01 -14.84 -6.42 -14.84 -0.80 0 -1.60 -1.20 -1.60 -2.81 0 -3.81 -19.86 -6.42 -25.67 -3.41 -7.22 3.81 -17.65 2.81 -21.06 -2.21 -7.82 -11.63 -42.72 -43.13 -45.13 -40.72 -0.60 0.60 0.80 3.81 3.21 7.02 2.41 3.21 4.41 8.63 4.41 12.03 0 5.42 -0.60 6.02 -6.62 6.02 -3.81 0 -12.03 -1.81 -18.45 -4.01 -6.42 -2.21 -12.03 -3.81 -12.24 -3.41 -0.40 0.40 2.01 4.01 5.42 8.02 8.22 10.03 21.66 16.45 42.12 20.46 9.23 1.81 18.85 3.61 21.46 4.21 3.61 0.60 4.41 2.21 4.41 7.82 0 6.02 -0.80 7.22 -8.42 10.63 -10.63 4.81 -14.44 9.03 -18.25 20.66 -3.81 11.43 -1.81 23.07 5.22 28.88 2.61 2.21 5.62 6.82 6.42 10.03 l1.60 6.02 2.21 -9.03 c1.20 -5.01 5.42 -13.44 9.23 -18.65z"/>
  <path d="M926.69 723.50 l0 -24.67 -7.22 0.80 c-6.02 0.80 -8.02 -0.20 -12.64 -5.01 -5.62 -6.22 -12.24 -9.83 -12.24 -6.62 0 1.20 -4.21 2.01 -9.23 2.01 l-9.43 0 1.40 -11.43 c0.80 -6.42 2.21 -19.06 3.01 -28.08 1 -11.43 2.61 -17.85 5.22 -20.66 2.81 -3.21 3.01 -4.41 1 -7.02 -1.40 -1.60 -3.61 -3.01 -4.81 -3.01 -3.41 0 -11.83 9.43 -18.25 20.66 -5.01 8.63 -6.02 9.43 -13.24 9.43 -7.22 0 -8.02 -0.60 -12.03 -9.23 -2.41 -5.01 -10.03 -15.24 -16.85 -22.87 -7.02 -7.42 -13.64 -15.24 -14.84 -17.25 -1.81 -2.61 -2.81 -3.01 -3.41 -1.20 -0.60 1.20 -4.21 2.41 -8.02 2.41 -6.62 0 -6.82 -0.20 -6.82 -7.62 0 -9.03 -2.81 -12.44 -10.23 -12.44 -4.21 0 -5.62 -1.20 -6.82 -5.62 l-1.40 -5.42 -7.42 8.63 c-6.22 7.02 -8.42 8.42 -14.84 8.42 -7.02 0 -7.42 -0.20 -7.42 -6.82 0 -6.02 2.21 -8.83 16.25 -22.06 46.13 -43.33 110.52 -71.21 164.88 -71.41 l19.46 0 0 130.38 0 130.38 -7.02 0 -7.02 0 0 -24.67z"/>
 </g>
 <g fill="#f1a72f">
  <path d="M1113.23 988.26 c0 -5.22 2.01 -8.42 9.03 -15.44 13.04 -12.84 12.03 -17.85 -4.01 -20.06 -7.82 -1 -8.02 -1.20 -8.63 -9.43 -0.60 -8.02 -0.20 -8.63 4.41 -8.63 2.81 0 5.22 -0.80 5.22 -2.01 0 -1 1.40 -2.01 3.21 -2.01 4.41 0 1.60 -3.41 -7.42 -9.23 -6.82 -4.21 -7.82 -5.82 -7.82 -12.44 0 -5.82 1.40 -9.03 5.22 -12.64 2.81 -2.61 7.02 -8.22 9.03 -12.24 4.61 -8.83 7.02 -10.43 22.87 -13.64 18.65 -4.01 28.68 -12.03 14.84 -12.03 -4.61 0 -7.82 -1.81 -12.44 -7.22 -3.61 -4.01 -8.83 -8.42 -11.83 -10.03 -8.63 -4.41 -25.07 -3.41 -37.31 2.21 -9.63 4.41 -12.64 4.81 -37.11 4.41 -23.47 -0.20 -27.48 0.20 -35.90 4.01 -19.66 9.03 -28.48 19.26 -35.50 41.32 -2.21 6.62 -3.21 7.42 -9.43 7.42 -6.42 0 -6.82 -0.40 -6.82 -6.62 0 -3.61 1.40 -11.43 2.81 -17.45 2.61 -9.63 2.61 -11.23 0 -13.24 -1.40 -1.20 -2.81 -3.81 -2.81 -5.62 0 -1.81 -0.80 -3.21 -1.81 -3.21 -1.81 0 -4.21 28.68 -4.21 51.55 l0 14.64 -7.02 0 -7.02 0 0 -71.21 0 -71.21 137.40 0 c137 0 137.40 0 137.40 4.01 0 23.87 -10.63 78.23 -15.24 78.23 -1.60 0 -2.81 1 -2.81 2.01 0 1.20 -0.80 2.01 -1.81 2.01 -0.80 0 -1.20 -2.21 -0.60 -5.01 0.60 -3.81 0 -5.01 -2.41 -5.01 -2.01 0 -2.81 1 -2.21 2.01 0.60 1.20 -0.20 2.01 -2.01 2.01 -2.41 0 -2.81 1.60 -2.01 7.62 1 6.22 -0.60 11.43 -9.83 31.09 -6.02 12.84 -10.23 23.07 -9.43 22.47 1.40 -0.80 18.05 -33.70 23.87 -47.14 l2.21 -5.01 0 5.62 c0.20 3.21 -2.41 11.83 -5.82 19.46 -3.21 7.62 -6.02 15.65 -6.02 17.85 0 2.41 -1.81 5.82 -4.01 7.62 -2.21 2.01 -4.01 5.01 -4.01 6.82 0 6.02 -20.66 32.90 -39.72 51.55 -16.25 15.85 -19.86 18.45 -25.67 18.45 -6.42 0 -6.82 -0.40 -6.82 -6.62z m31.09 -87.65 c-3.61 -4.01 -7.02 -5.22 -7.02 -2.41 0 0.80 2.01 2.41 4.61 3.61 6.42 3.21 6.42 3.21 2.41 -1.20z"/>
  <path d="M790.29 759.20 c0 -4.41 1.20 -7.62 3.01 -8.22 4.81 -2.01 3.61 -4.21 -3.01 -5.42 -5.42 -1.20 -6.02 -2.21 -6.02 -8.42 0 -5.01 1 -7.42 3.61 -8.42 1.81 -0.60 8.22 -4.61 13.84 -9.03 12.84 -9.43 18.45 -11.63 29.08 -11.63 13.84 0 24.07 -4.21 34.30 -14.44 5.22 -5.22 9.43 -10.83 9.43 -12.64 0 -1.60 1.40 -3.01 3.01 -3.01 1.60 0 3.41 -2.21 4.21 -5.01 0.60 -2.81 2.01 -5.01 3.01 -5.01 1 0 1.40 1.20 1 2.61 -3.01 9.03 -3.01 13.44 -0.60 13.44 1.40 0 2.61 -2.01 2.81 -4.21 0.60 -5.82 2.01 -6.82 5.62 -3.81 1.60 1.40 3.01 1.81 3.01 1 0 -1 1.81 0 4.21 2.21 4.01 3.61 4.21 3.61 7.02 -0.20 2.21 -3.01 3.41 -3.21 5.42 -1.20 1.81 2.01 1.60 2.81 -1.20 4.41 -1.81 1.20 -3.01 3.01 -2.41 4.01 0.80 1 2.01 1.40 3.01 0.80 0.80 -0.60 2.01 0.80 2.61 3.01 0.80 3.01 2.01 3.41 6.62 2.21 6.62 -1.81 7.22 -3.81 6.82 -24.87 -0.20 -4.01 0.40 -9.43 1.40 -12.03 1 -2.61 2.01 14.44 2.61 41.72 l1.20 46.13 0.40 -48.54 c0.20 -30.89 1.20 -48.74 2.41 -48.74 1.20 0 2.01 13.84 2.01 37.71 0 20.66 0.60 47.74 1.40 60.17 l1.20 22.47 -75.42 0 -75.62 0 0 -7.02z m26.08 -15.04 c-4.01 -2.61 -10.03 -2.61 -10.03 0 0 1.20 3.01 2.01 6.62 2.01 4.81 0 5.62 -0.60 3.41 -2.01z"/>
  <path d="M760.20 708.65 c0 -5.22 -0.60 -6.82 -1.81 -4.81 -1.60 2.41 -5.01 2.41 -23.47 0.20 -20.46 -2.41 -26.88 -4.81 -26.88 -10.03 0 -3.41 -5.22 -8.02 -8.83 -8.02 -1.81 0 -3.21 -0.80 -3.21 -2.01 0 -1 -2.61 -2.01 -6.02 -2.01 -5.42 0 -6.02 -0.60 -6.02 -6.82 0 -8.83 10.63 -34.10 23.27 -55.16 10.63 -18.05 29.49 -42.72 33.70 -44.33 1.60 -0.60 7.02 -5.82 12.24 -11.43 7.02 -8.02 10.83 -10.63 15.04 -10.63 5.42 0 5.01 0.60 -8.22 13.44 -7.62 7.22 -13.44 13.84 -12.84 14.24 0.60 0.60 5.62 -4.01 11.23 -10.23 5.82 -6.62 11.83 -11.43 14.04 -11.43 2.21 0 3.41 1 2.81 2.01 -0.60 1.20 -0.40 2.01 0.60 2.01 1.20 0 2.01 1.20 1.81 2.61 -0.20 6.82 1 8.63 5.82 9.03 3.01 0.20 6.62 1.40 8.02 2.41 1.60 1.60 2.81 1.40 3.61 -0.40 0.60 -1.40 0.80 2.41 0.20 8.42 -0.60 7.42 -0.20 10.03 1 8.02 1 -1.60 2.01 -4.61 2.01 -6.42 0 -2.01 1 -3.61 2.01 -3.61 1.20 0 2.01 3.01 2.01 6.62 0 3.41 0.60 12.44 1.40 20.06 l1.20 13.44 -8.02 0 c-6.02 0 -10.83 -1.81 -18.45 -7.02 -10.03 -6.82 -10.03 -7.02 -8.22 -1.81 1.20 2.81 4.21 8.02 7.02 11.63 5.01 6.62 7.02 19.26 3.01 19.26 -3.81 0 3.41 11.03 13.44 20.26 5.22 5.01 13.84 10.83 19.06 13.04 9.03 3.61 9.63 4.21 9.63 11.03 0 7.62 -2.81 11.23 -13.04 16.45 -7.02 3.61 -33.90 9.43 -43.13 9.43 -5.62 0 -6.02 -0.40 -6.02 -7.42z"/>
 </g>
 <g fill="#f19b27">
  <path d="M953.56 954.37 c1 -46.74 2.21 -93.47 3.01 -103.90 1.40 -16.85 1.60 -14.04 2.21 23.07 l0.60 42.12 1.81 -36.10 c1.60 -35.30 3.21 -48.54 5.01 -43.53 0.60 1.20 2.41 2.41 4.01 2.41 2.41 0 2.61 0.60 0.80 2.61 -1.60 2.21 -1 3.41 2.81 5.42 2.81 1.40 5.01 4.41 5.01 6.42 0 2.01 1 3.81 2.01 3.81 7.02 1 8.63 0.40 9.23 -2.61 0.20 -2.01 -0.80 -3.61 -2.41 -3.61 -1.81 0 -2.41 1 -1.81 2.01 0.60 1.20 0.20 2.01 -0.80 2.01 -1.20 0 -2.21 -0.60 -2.41 -1.40 0 -1 -0.40 -3.21 -0.80 -5.22 -0.40 -1.81 1 -4.41 3.21 -5.42 2.61 -1.40 3.81 -1.40 3.81 0 0 1 -0.80 2.01 -2.01 2.01 -1 0 -2.01 0.80 -2.01 1.60 0 1 2.81 1.81 6.22 2.01 4.41 0 5.82 -0.60 5.01 -2.61 -0.60 -1.81 0 -2.41 1.60 -1.81 4.01 1.60 1.40 11.03 -5.42 18.65 -6.62 7.62 -10.23 15.85 -12.03 26.28 -1 6.42 -1 6.62 1 2.01 10.63 -24.47 13.84 -29.89 19.46 -33.90 l6.22 -4.41 0 5.82 c0 5.42 -5.22 12.44 -9.23 12.44 -1 0 -3.41 2.41 -5.22 5.62 -3.21 5.42 -4.21 13.64 -3.81 35.10 0.20 11.23 0.40 11.43 6.02 11.43 3.41 0 6.82 1.60 8.42 4.01 2.01 2.81 6.62 4.81 14.84 6.22 6.62 1 13.44 2.41 15.04 3.01 2.41 0.60 3.01 -0.80 2.41 -7.02 -1 -9.63 0.40 -10.63 20.66 -13.84 33.90 -5.62 34.10 -5.42 43.33 2.01 9.23 7.22 25.88 23.27 25.88 24.87 0 0.40 -2.41 0.20 -5.22 -0.40 -4.01 -1 -5.01 -0.60 -4.41 1.40 0.60 1.60 3.81 2.81 7.82 2.81 6.42 -0.20 14.44 4.81 15.04 9.23 0.20 1 0.40 2.61 0.60 3.81 0 1 1.81 1.40 3.81 0.60 3.01 -1.20 3.01 -0.80 -0.60 3.61 -2.01 2.61 -8.42 9.83 -14.04 15.85 -8.83 9.63 -9.03 10.03 -2.01 4.01 4.41 -3.81 11.83 -10.63 16.65 -14.84 9.63 -9.03 11.23 -6.42 3.01 4.61 -3.21 4.01 -6.62 9.03 -7.82 11.23 -5.01 9.43 -43.33 36.71 -67.60 48.34 -13.84 6.62 -27.48 9.03 -27.48 4.81 0 -1 -4.01 -2.01 -9.03 -2.01 -5.01 0 -9.03 -0.80 -9.03 -1.81 0 -1.20 -4.21 -2.21 -9.43 -2.61 -9.23 -0.60 -9.23 -0.60 -11.43 -9.63 -1.81 -7.42 -3.41 -9.63 -9.23 -12.44 -3.81 -1.81 -8.02 -4.21 -9.43 -5.42 -1.20 -1.20 -4.61 -2.61 -7.42 -3.41 -2.81 -0.60 -5.22 -2.81 -5.42 -4.61 -0.60 -9.43 -5.62 15.04 -5.62 28.48 l-0.20 15.44 -7.22 0 -7.42 0 1.40 -84.65z"/>
  <path d="M926.69 981.85 l0 -43.13 -5.01 0 c-2.81 0 -5.01 -0.80 -5.01 -2.01 0 -1 -1.81 -2.01 -3.81 -2.01 -2.21 0 -4.61 1 -5.22 2.01 -0.60 1.20 -4.41 2.01 -8.22 2.01 -3.81 0 -6.82 -0.80 -6.82 -2.01 0 -1 -0.80 -2.01 -2.01 -2.01 -1 0 -2.01 3.61 -2.01 8.02 0 7.82 -0.20 8.02 -6.82 8.02 -8.42 0 -19.46 -7.22 -23.07 -15.44 -2.41 -5.22 -4.21 -6.62 -10.03 -7.02 -5.82 -0.40 -7.42 -1.40 -7.82 -5.42 -1.20 -8.63 1.60 -22.26 4.81 -22.26 1.81 0 2.81 -2.21 2.81 -6.02 0 -3.61 1.20 -6.62 3.01 -7.22 4.41 -1.81 4.21 -25.88 -0.20 -27.68 -6.02 -2.41 -10.63 -1.20 -14.44 3.81 -2.41 3.01 -6.02 5.01 -9.23 5.01 -4.41 0 -5.22 0.80 -5.22 6.02 0 5.62 -0.40 6.02 -8.02 6.02 l-8.02 0 0 -19.66 c0 -18.65 -1.60 -24.87 -7.82 -30.49 -2.21 -2.01 -6.22 -10.03 -6.22 -12.44 0 -1.40 -1.81 -3.81 -4.01 -5.22 -2.21 -1.40 -4.01 -4.21 -4.01 -6.42 0 -2.41 -2.01 -5.01 -5.01 -6.42 -2.81 -1.20 -5.01 -3.01 -5.01 -3.81 0 -1 -2.41 -0.80 -5.22 0.20 -12.64 4.81 -22.87 -0.20 -22.87 -11.43 l0 -6.62 97.28 0 97.28 0 0 123.36 0 123.36 -7.02 0 -7.02 0 0 -43.13z m-46.13 -58.97 c0 -4.81 -0.60 -5.62 -4.01 -4.81 -4.81 1.20 -5.01 2.21 -0.60 7.02 4.21 4.81 4.61 4.61 4.61 -2.21z"/>
  <path d="M667.94 751.38 c0 -28.08 10.63 -74.42 19.26 -84.44 5.62 -6.62 8.42 -5.42 5.22 2.01 -3.41 7.42 -3.01 8.22 1.60 3.01 3.21 -3.61 4.01 -4.01 4.01 -1.40 0 2.01 1 3.41 2.01 3.41 1.20 0 2.01 1.60 2.21 3.61 0 1.81 0.60 2.41 1.20 1 1.20 -3.21 10.63 6.02 10.63 10.43 0 1.81 1 2.61 2.01 2.01 1.20 -0.60 2.01 0.20 2.01 1.81 0 3.61 7.02 4.41 9.03 1 1 -1.20 2.41 -0.80 4.01 1.60 2.61 3.41 2.81 3.41 6.82 -0.20 3.81 -3.41 4.21 -3.41 4.21 -0.60 0 2.01 0.80 3.41 1.81 3.41 1 0 3.41 0.60 5.42 1.40 2.21 0.80 3.01 0.60 2.21 -0.80 -0.80 -1.20 -0.20 -3.21 1.40 -4.41 3.01 -2.41 12.64 0.60 15.65 4.81 1 1.20 1.60 0.60 1.60 -1.20 0 -4.41 5.42 -6.42 6.82 -2.61 1.60 4.41 1.40 5.22 -0.80 3.81 -1 -0.60 -2.01 -0.20 -2.01 1 0 1.40 -2.01 4.01 -4.61 6.02 l-4.41 3.81 8.02 -1.20 8.02 -1.20 -5.01 4.21 -5.01 4.41 7.42 7.02 c8.22 7.62 17.05 9.23 22.47 4.01 1.60 -1.60 4.21 -3.01 5.62 -3.01 3.21 0.20 -8.42 10.03 -11.83 10.03 -1.20 0 -3.01 1 -3.81 2.41 -0.80 1.40 -0.60 1.60 0.80 0.80 1.40 -0.80 2.41 -0.40 2.41 0.60 0 3.21 3.81 2.61 7.22 -0.80 1.60 -1.60 4.21 -2.41 5.82 -1.60 2.21 0.80 2.61 0.20 1.81 -2.21 -1 -2.81 -0.20 -3.21 4.41 -2.41 3.21 0.40 6.82 1 7.82 1 1.20 0.20 0.60 1.20 -1 2.21 -2.41 1.40 -2.01 2.21 2.01 3.81 2.81 1 4.21 2.01 3.21 2.01 -1 0.20 0.60 2.41 3.61 5.22 6.22 5.82 6.42 7.02 1 7.02 -2.61 0 -3.61 0.80 -2.61 2.41 1 1.60 0.40 1.81 -2.41 0.60 -6.42 -2.61 -24.47 -3.61 -20.86 -1.20 2.41 1.81 2.21 2.21 -1.40 2.21 -8.63 0 -7.02 4.01 1.81 4.21 4.81 0.20 6.82 0.60 4.61 1.20 -2.21 0.60 -4.81 1.81 -5.82 2.81 -1.20 1 -31.89 1.81 -68.80 1.81 l-66.79 0 0 -14.84z"/>
  <path d="M821.98 760.81 c2.41 -0.40 6.42 -0.40 9.03 0 2.41 0.40 0.40 0.80 -4.61 0.80 -5.01 0 -7.02 -0.40 -4.41 -0.80z"/>
 </g>
 <g fill="#f39228">
  <path d="M953.76 1059.27 c-1.60 -2.81 0.60 -57.37 3.01 -69.40 1.20 -5.82 1.60 -1 2.01 18.05 l0.60 26.08 1.60 -19.06 c0.80 -10.43 2.01 -21.26 2.81 -24.07 0.80 -2.81 1.40 -8.02 1.40 -11.43 0.20 -5.22 0.80 -6.02 3.01 -4.41 1.40 1.20 2.21 3.01 1.60 3.81 -1.20 2.01 4.81 4.41 7.22 3.01 1 -0.80 1.20 0 0.60 1.60 -0.60 1.60 0 3.61 1 4.41 1.20 0.60 1.81 2.01 1.20 3.01 -0.60 0.80 0.80 2.01 3.01 2.61 2.21 0.60 4.01 0.20 4.01 -0.80 0 -1 1 -1.81 2.01 -1.81 1 0 1.81 0.60 1.81 1.60 -0.80 4.21 0.80 6.22 6.02 8.02 4.21 1.40 6.42 1.40 8.22 -0.20 1.81 -1.81 2.21 -1.40 1.60 1.60 -0.40 3.21 0.40 3.81 4.41 3.41 4.61 -0.40 4.81 -0.40 1 2.21 -3.61 2.81 -3.61 3.01 -0.40 6.42 2.81 2.61 3.01 4.01 1.20 6.22 -3.01 3.61 1.60 5.42 12.03 4.41 5.62 -0.40 7.42 0 6.82 1.81 -0.60 1.40 0.40 2.61 2.21 2.61 1.81 0 3.21 -1.20 3.21 -2.41 0 -2.01 0.60 -1.81 1.81 0.20 1.20 1.81 2.01 2.01 2.41 0.40 0.60 -1.40 4.41 -2.81 8.83 -3.01 4.41 -0.40 6.82 -0.40 5.42 0.20 -1.40 0.60 -3.41 2.81 -4.61 4.81 -2.01 3.81 -1.81 3.81 5.01 1 4.01 -1.60 7.22 -2.21 7.22 -1 0 1 -0.80 1.81 -2.01 1.81 -1 0 -2.01 1.60 -2.01 3.81 0 2.01 -1.60 4.21 -3.41 4.81 -2.01 0.60 -10.43 3.41 -18.65 6.42 -29.89 10.63 -79.83 18.45 -83.24 13.24z"/>
  <path d="M824.79 989.87 c-1.40 -2.81 -2.41 -9.63 -2.41 -15.04 0 -7.62 -0.80 -10.03 -3.01 -10.03 -2.21 0 -3.01 -2.21 -3.01 -7.22 0 -10.03 13.84 -26.88 22.06 -26.88 5.42 0 5.42 -0.20 5.22 -11.23 -0.20 -7.82 0.60 -11.63 2.41 -12.44 2.01 -0.60 2.41 1.20 2.01 6.62 -0.40 5.42 0.20 7.82 2.41 8.63 2.61 0.80 2.61 0.60 0.40 -2.21 -3.41 -4.21 -1.40 -7.62 4.01 -6.82 2.81 0.60 5.01 3.41 7.02 9.63 1.60 4.81 5.42 11.23 8.42 14.04 7.62 7.22 6.62 15.85 -1.81 15.85 -4.01 0 -6.22 1.20 -7.02 3.81 -0.60 2.21 -2.81 4.61 -4.81 5.22 -5.01 1.60 -8.22 9.43 -8.22 20.06 0 7.62 -0.60 9.03 -4.01 9.03 -2.21 0 -4.01 1 -4.01 2.01 0 1.20 -3.01 2.01 -6.62 2.01 -5.22 0 -7.22 -1.20 -9.03 -5.01z"/>
  <path d="M762.21 936.72 c0 -3.41 3.61 -13.24 8.02 -22.06 l8.02 -16.05 11.23 0 11.23 0 -1 8.63 c-0.60 4.61 -2.81 13.44 -5.01 19.46 -3.61 9.43 -5.01 11.03 -9.83 11.63 -3.01 0.40 -6.42 1.60 -7.42 2.61 -1.20 1 -5.01 1.81 -8.63 1.81 -6.02 0 -6.62 -0.60 -6.62 -6.02z"/>
  <path d="M875.94 937.12 c-1 -1.40 -2.41 -2.01 -3.41 -1.40 -1.60 1 -4.41 -2.21 -5.42 -6.02 -0.20 -1 -2.21 -6.82 -4.41 -12.64 -3.41 -9.03 -3.41 -10.63 -0.80 -10.03 1.60 0.40 4.21 4.01 5.62 8.02 1.40 4.21 4.61 9.23 7.02 11.23 2.81 2.41 4.21 5.22 3.61 8.42 -0.40 3.41 -1.20 4.21 -2.21 2.41z"/>
  <path d="M742.95 885.57 c-1 -5.62 -2.21 -7.02 -6.02 -7.02 -2.61 0 -4.81 -0.80 -4.81 -1.81 0 -1.20 -2.21 -4.21 -4.81 -7.02 -3.61 -4.01 -6.62 -5.22 -12.84 -5.22 -8.83 0 -12.44 -3.61 -12.44 -11.83 0 -2.81 -1.20 -4.21 -4.01 -4.21 -2.21 0 -5.22 -2.41 -6.82 -5.42 -2.21 -4.01 -3.01 -4.61 -3.21 -2.01 0 2.61 -1.60 3.41 -6.82 3.41 -7.62 0 -7.22 0.80 -11.23 -24.07 -1 -7.22 -2.01 -19.66 -2.01 -27.48 l0 -14.64 44.73 0 c25.47 0 45.53 0.80 46.53 1.81 1.20 1.20 7.82 2.41 15.04 2.81 11.63 0.60 11.03 0.60 -4.81 1 -17.45 0.40 -17.85 0.40 -14.04 4.21 2.01 2.01 4.21 3.01 4.81 2.41 1.81 -2.21 18.45 -2.61 19.86 -0.60 0.60 1.20 2.61 2.41 4.21 2.81 1.60 0.40 4.61 2.21 6.82 4.21 3.21 2.81 3.61 4.01 1.60 5.22 -3.61 2.21 2.41 7.22 6.62 5.42 1.60 -0.60 3.01 -0.20 3.01 0.80 0 1.20 -0.80 2.01 -2.01 2.01 -3.21 0 -2.21 6.02 1.20 7.42 1.81 0.60 2.61 2.41 1.81 4.21 -0.60 1.81 -0.60 2.61 0.20 1.81 0.80 -0.60 3.41 2.61 5.82 7.22 3.81 7.22 4.41 11.03 4.01 26.08 -0.40 9.63 0 17.45 0.80 17.45 3.01 0 2.01 -36.91 -1 -41.52 -2.61 -4.01 -2.61 -4.61 0.20 -4.61 1.60 0 4.21 2.61 5.82 5.62 3.01 5.82 4.61 23.27 2.61 28.48 -0.80 1.60 -1.40 5.82 -1.81 9.03 -0.60 5.62 -1.20 6.02 -10.03 6.62 -5.01 0.40 -10.43 2.01 -11.63 3.61 -1.81 1.81 -6.42 2.81 -14.84 2.81 -8.42 0 -14.64 1.20 -19.86 4.01 -4.01 2.21 -10.03 4.01 -13.44 4.01 -5.01 0 -6.02 -0.80 -7.22 -7.02z"/>
 </g>
 <g fill="#f18a27">
  <path d="M903.62 1057.67 c-14.04 -2.01 -46.74 -11.23 -62.58 -17.65 -77.22 -32.09 -134.79 -94.67 -160.87 -175.11 -5.62 -17.65 -6.82 -25.07 -5.01 -32.90 l1.40 -6.62 2.61 7.02 c1.40 3.81 2.61 5.42 2.61 3.61 0.20 -2.01 1.81 -3.61 3.81 -3.61 2.81 0 3.01 -0.40 0.40 -2.01 -2.41 -1.60 -1.81 -2.01 2.41 -2.01 3.61 0 5.82 1.20 6.62 4.01 0.60 2.21 2.21 4.01 3.21 4.01 1.20 0 1.60 0.80 0.80 1.81 -0.60 1 -0.20 2.41 0.80 3.01 1 0.80 2.41 -0.60 3.21 -2.81 0.60 -2.21 2.01 -4.01 3.01 -4.01 1 0 1.40 1.40 0.60 3.41 -1 2.61 -0.40 3.01 2.81 2.21 2.61 -0.60 4.81 0.20 6.42 2.81 2.21 3.41 2.01 3.81 -1.40 2.81 -5.01 -1.60 -7.22 3.41 -4.21 9.23 2.01 3.61 2.41 3.81 5.82 0.60 3.81 -3.41 9.23 -2.41 7.02 1.20 -0.80 1 -0.40 1.81 0.80 1.81 1 0 2.61 -1 3.41 -2.21 0.80 -1.40 2.41 0.20 4.01 4.01 2.41 5.62 3.21 6.22 6.82 4.21 2.61 -1.40 4.01 -1.40 4.01 0 0 1 -0.80 2.01 -2.01 2.01 -1 0 -2.01 1.60 -2.01 3.61 0 2.41 0.60 2.61 1.60 1 1.20 -2.01 2.61 -1.81 6.02 0.60 2.61 1.60 4.41 4.21 4.21 5.42 -1 9.03 -0.20 9.63 7.62 5.42 5.22 -2.81 11.43 -4.01 19.86 -4.01 8.63 0 13.04 -1 14.84 -3.01 1.81 -2.21 5.42 -3.01 11.83 -2.61 9.03 0.60 9.23 0.80 9.83 8.22 0.80 10.03 -5.62 19.46 -13.44 19.46 -11.03 0 -16.25 4.41 -24.47 20.66 -4.41 8.83 -7.02 15.24 -5.82 14.44 1 -0.60 4.21 -5.42 7.02 -10.63 l4.81 -9.43 0.20 8.63 c0 8.83 4.01 10.43 4.01 1.81 0 -3.61 0.40 -3.81 2.01 -1.40 1 1.60 2.01 6.82 2.01 11.43 0 4.81 1.40 12.24 3.21 16.65 l3.21 8.02 9.43 -4.81 c9.83 -5.22 22.47 -9.63 23.67 -8.63 0.40 0.40 -1.20 2.41 -3.41 4.41 -5.62 5.22 -5.01 7.22 1.40 4.01 3.01 -1.60 5.82 -2.61 6.22 -2.21 0.40 0.40 -0.80 4.21 -2.41 8.22 -3.81 9.23 -4.01 16.45 -0.20 23.07 2.61 4.61 2.61 4.21 1.60 -6.22 -1 -9.43 -0.40 -12.84 3.41 -19.66 2.61 -4.41 6.42 -8.63 8.22 -9.23 2.01 -0.60 4.21 -3.01 4.81 -5.22 0.80 -2.01 2.21 -3.81 3.21 -3.81 2.01 0 -1.81 8.22 -9.63 20.46 -4.81 7.82 -6.42 23.67 -2.61 23.67 1.40 0 1.60 -2.61 0.80 -7.22 -1.40 -8.02 3.81 -20.06 9.63 -22.06 2.01 -0.60 3.61 -1.81 3.61 -2.61 0 -0.80 1.81 -3.61 4.01 -6.22 3.21 -3.81 4.41 -4.21 7.02 -2.01 2.61 2.21 2.81 2.01 2.01 -0.60 -2.01 -4.81 2.21 -5.82 9.03 -2.41 3.21 1.60 6.02 2.81 6.02 2.41 0 -0.60 -4.01 -5.01 -9.03 -9.83 -8.63 -8.63 -9.03 -9.63 -9.03 -20.46 0 -7.22 0.80 -11.03 2.01 -10.23 1.20 0.60 2.01 3.01 2.01 5.22 0 2.01 1 3.81 2.01 3.81 1.20 0 1.81 -0.60 1.81 -1.40 -1.20 -7.02 5.62 -9.23 10.23 -3.61 1.40 1.60 3.81 3.01 5.22 3.01 3.41 0 3.61 8.42 0.40 11.63 -1.81 1.81 -1.60 2.41 1.20 2.41 2.01 0 2.81 0.80 2.01 2.41 -1 1.40 -0.60 1.60 1.20 0.60 1.60 -1 3.61 -0.20 5.42 2.01 1.40 2.21 2.81 3.01 2.81 1.81 0.20 -1 0.40 -2.61 0.80 -3.81 0.20 -1 0.60 -3.41 0.80 -5.01 0.20 -2.61 0.40 -2.61 2.41 0 1.40 2.21 2.41 2.41 3.01 0.60 1.40 -3.21 6.82 -1 6.82 2.61 0 1.60 1.81 2.81 4.01 2.81 2.21 0 4.01 1 4.01 2.01 0 1.20 1 2.01 2.01 2.01 1.20 0 2.01 -2.41 2.01 -5.22 0 -3.21 1 -4.81 2.61 -4.41 1.81 0.80 2.61 13.04 3.41 48.94 l1.20 47.94 0.40 -51.95 c0.20 -29.89 1.20 -51.35 2.21 -50.15 1 1 2.21 33.10 3.01 71.61 l1.20 69.60 -15.65 -0.20 c-8.42 -0.20 -18.05 -0.80 -21.46 -1.20z"/>
 </g>
 <g fill="#06274b">
  <path d="M916.66 1076.92 c-102.50 -11.43 -192.36 -75.62 -236.89 -169.09 -24.67 -52.15 -35.10 -107.71 -30.09 -160.26 7.22 -78.03 35.70 -139.40 89.26 -193.16 57.77 -57.77 127.97 -87.05 208.81 -87.05 48.54 0 89.26 9.83 133.19 32.29 123.96 63.38 189.35 210.41 154.65 347.81 -24.47 97.48 -91.87 175.31 -182.93 211.41 -40.52 16.05 -92.27 22.87 -135.99 18.05z m78.23 -27.08 c55.36 -10.83 107.51 -39.31 146.83 -80.63 26.08 -27.48 41.32 -50.55 56.76 -86.65 8.83 -20.46 18.25 -55.96 20.06 -75.22 0.60 -7.62 1.60 -16.05 2.21 -18.45 l0.80 -4.61 -131.38 0 -131.38 0 0 70.40 0 70.40 6.62 -1.40 c15.44 -3.21 16.45 -4.61 16.45 -21.06 0.20 -18.25 5.22 -31.09 17.45 -43.53 14.04 -14.44 24.07 -17.45 56.76 -17.85 24.27 -0.20 29.28 -0.80 37.11 -4.41 7.02 -3.41 12.84 -4.41 25.67 -4.41 18.85 0 24.27 2.01 33.90 12.84 4.61 5.22 7.82 7.22 12.24 7.22 10.83 0 13.24 9.03 4.61 16.85 -2.21 2.01 -9.63 4.81 -16.65 6.42 -17.65 4.01 -21.06 5.82 -24.87 13.24 -1.81 3.61 -6.02 9.63 -9.63 13.24 l-6.22 6.82 4.81 3.21 c10.43 7.42 16.25 14.24 16.25 19.26 0 3.81 -1 5.22 -4.01 5.22 -2.21 0 -4.01 1.20 -4.01 2.81 0 4.81 -10.63 2.21 -17.25 -4.01 -3.41 -3.21 -10.03 -8.83 -14.84 -12.64 -7.82 -6.22 -9.03 -6.62 -14.84 -4.61 -3.41 1.20 -12.24 2.81 -19.66 3.61 -15.44 1.60 -21.06 5.42 -13.04 9.03 6.82 3.01 10.83 10.83 7.62 14.64 -3.81 4.61 -11.83 5.01 -17.25 0.80 -2.61 -2.01 -11.83 -5.01 -20.46 -6.82 -11.43 -2.01 -16.45 -4.01 -18.85 -7.22 -3.21 -4.01 -4.01 -4.21 -11.43 -2.01 -4.21 1.40 -12.03 2.41 -17.25 2.41 l-9.23 0 0 59.77 c0 32.90 0.60 60.58 1.40 61.38 1.60 1.60 12.44 0.20 34.70 -4.01z m-60.17 -131.18 l0 -134.39 -130.58 0 -130.78 0 1.20 15.65 c6.02 77.22 50.75 156.45 113.73 201.38 41.52 29.49 96.28 50.15 137 51.55 l9.43 0.20 0 -134.39z m0 -291.85 l0 -133.39 -13.44 0 c-23.07 0 -57.17 9.03 -88.86 23.47 -52.35 23.87 -103.90 75.02 -130.38 129.58 -15.04 31.09 -28.08 80.03 -28.08 105.10 l0 8.63 130.38 0 130.38 0 0 -133.39z m284.83 123.56 c0 -26.88 -12.84 -72.41 -30.29 -107.71 -19.06 -38.51 -55.36 -80.23 -90.66 -104.70 -19.86 -13.64 -51.75 -28.88 -74.62 -35.50 -16.85 -4.81 -50.55 -11.03 -60.58 -11.03 l-4.61 0 0 134.39 0 134.39 130.38 0 130.38 0 0 -9.83z"/>
  <path d="M1138.90 909.24 c-1 -1.40 -5.01 -3.01 -8.83 -3.81 -8.02 -1.40 -8.22 -2.41 -2.61 -9.63 6.22 -7.82 17.65 -7.42 24.67 1 5.82 6.82 6.42 10.23 2.81 13.44 -3.41 2.81 -13.44 2.01 -16.05 -1z"/>
  <path d="M835.42 990.87 c-0.80 -1.20 -1.81 -7.02 -2.41 -12.84 -1 -9.63 -0.40 -12.03 6.22 -23.67 4.01 -7.22 7.22 -14.04 7.22 -15.24 0 -5.42 -8.22 -1.81 -15.24 6.82 -8.22 10.03 -21.26 18.45 -32.09 20.86 -7.02 1.60 -7.22 1.40 -11.03 -6.62 -6.02 -13.64 -4.61 -29.89 5.22 -51.95 1.20 -3.01 0.40 -3.61 -3.81 -3.61 -4.41 0 -6.22 2.21 -13.04 15.65 -6.42 12.84 -9.23 16.05 -15.44 19.06 l-7.82 3.81 6.42 -6.82 c3.61 -3.61 7.82 -11.23 9.43 -16.45 4.01 -13.24 15.65 -25.27 24.47 -25.27 5.01 0 7.62 -1.40 10.83 -6.02 5.82 -8.22 3.61 -10.83 -7.62 -9.23 l-9.23 1.20 5.82 -6.02 c6.42 -6.62 10.03 -7.42 15.85 -3.01 6.42 4.81 7.82 3.61 6.62 -6.02 -1 -7.22 -0.60 -9.43 1.81 -10.43 3.01 -1 5.42 1.20 7.42 6.42 0.60 1.20 2.81 -0.40 5.22 -3.41 5.42 -6.62 16.45 -8.63 27.08 -4.81 4.41 1.40 6.82 3.21 5.42 4.01 -1.20 0.80 -2.21 5.82 -2.21 11.43 0 9.43 0.20 9.83 5.62 9.83 3.21 0 7.42 -1.81 9.43 -4.01 2.61 -2.81 6.22 -4.01 12.44 -4.01 10.83 0 11.23 3.01 0.60 4.81 -7.02 1.20 -16.65 6.42 -29.89 16.85 l-4.81 3.81 5.62 2.81 c6.62 3.21 8.22 5.82 11.03 17.25 1.20 4.61 4.41 11.03 7.02 14.24 2.81 3.41 5.01 7.02 5.01 8.22 0 7.82 -15.24 -8.22 -19.66 -21.06 -2.81 -8.02 -4.61 -10.03 -8.83 -10.43 -7.22 -0.80 -8.83 8.22 -3.61 18.85 5.62 10.83 5.01 14.04 -4.21 29.89 -7.42 12.84 -8.22 14.84 -7.22 24.47 1 10.03 -0.80 15.24 -3.61 10.63z"/>
  <path d="M768.83 725.30 c-6.62 -6.62 -10.63 -12.03 -9.43 -13.04 1 -0.80 9.83 -3.21 19.66 -5.01 18.05 -3.41 30.49 -8.42 35.30 -14.24 1.40 -1.60 2.21 -3.41 1.81 -3.61 -0.40 -0.40 -5.42 -2.61 -11.23 -5.22 -17.85 -8.22 -42.32 -38.51 -36.51 -45.53 1.81 -2.41 3.01 -2.41 5.42 -0.40 1.81 1.40 0.40 -1.40 -3.21 -6.42 -6.22 -9.03 -11.63 -26.28 -9.63 -31.49 1.60 -3.81 8.02 -3.21 12.24 1.40 4.21 4.61 20.86 16.05 23.47 16.05 0.80 0 1 -3.61 0.40 -8.02 -0.80 -4.21 -0.60 -12.03 0 -17.05 1.20 -7.62 2.21 -9.03 6.02 -9.03 3.41 0 5.42 1.81 7.22 6.22 1.40 3.21 8.63 12.64 16.05 20.86 7.42 8.22 15.44 19.06 17.85 24.07 2.41 5.01 5.01 9.03 6.02 9.03 1 0 4.61 -4.81 8.02 -10.63 7.42 -13.04 13.44 -18.65 21.66 -20.46 5.62 -1 7.42 -0.20 16.45 8.63 5.62 5.42 10.23 10.43 10.23 11.23 0 0.60 -3.01 1.20 -6.82 1.20 -3.61 0 -7.82 1.40 -9.23 3.01 -1.40 1.81 -3.41 11.63 -4.21 21.86 -1.81 22.26 -6.82 34.50 -18.05 44.13 -8.83 7.42 -19.46 11.23 -31.49 11.23 -10.83 0 -16.45 2.21 -29.49 12.24 -7.02 5.22 -13.84 8.63 -19.06 9.23 -7.62 1 -8.63 0.60 -19.46 -10.23z"/>
  <path d="M1048.04 737.94 c-5.01 -4.61 -9.63 -10.83 -10.43 -13.64 -0.60 -2.81 -3.81 -7.62 -6.82 -10.43 -7.62 -7.02 -9.63 -23.67 -4.81 -38.31 4.21 -13.24 7.62 -17.25 19.06 -22.26 10.83 -4.81 9.83 -5.42 -16.65 -10.23 -19.06 -3.61 -33.90 -9.83 -40.72 -17.65 -5.62 -6.02 -12.84 -17.85 -12.84 -21.06 0 -4.01 15.85 -3.21 29.08 1.40 14.24 4.81 14.44 4.81 10.43 0.40 -3.41 -3.81 -9.43 -18.85 -9.43 -23.67 0 -1.81 2.21 -2.81 5.82 -2.81 8.83 0 32.29 18.45 51.75 40.72 7.22 8.42 8.83 9.43 12.44 7.62 7.82 -4.41 38.31 -1.81 38.31 3.01 0 1.60 0.80 2.81 1.60 2.81 2.81 0 6.82 14.44 6.02 21.86 -1 10.23 -5.82 12.24 -13.64 5.62 -11.43 -9.63 -16.65 -5.42 -8.63 7.02 3.21 4.81 4.61 9.43 4.21 13.84 -0.60 7.42 -5.62 10.63 -5.62 3.81 0 -2.41 -2.61 -7.02 -6.02 -10.23 -4.61 -4.81 -7.42 -6.02 -12.44 -5.42 -6.22 0.60 -6.62 1 -6.02 7.62 0.80 9.23 -1.40 14.84 -10.63 26.88 -8.83 11.63 -9.63 21.26 -3.21 32.49 5.01 8.42 5.01 8.83 1.20 8.83 -1.81 0 -7.22 -3.81 -12.03 -8.22z"/>
 </g>
 <g fill="#FFFFFF">
  <path d="M1481.29 1013.14 c-15.24 -4.01 -28.88 -15.85 -32.69 -28.68 -1.20 -3.61 -2.61 -24.07 -3.21 -45.13 l-1 -38.71 13.84 0 13.84 0 0.60 39.31 0.60 39.31 6.62 5.82 c10.23 9.23 26.28 7.42 33.90 -4.01 3.01 -4.41 3.61 -11.03 4.21 -42.72 l0.80 -37.71 12.84 0 12.84 0 0 35.70 c0 49.34 -3.61 60.38 -23.27 71.81 -9.63 5.62 -28.48 8.02 -39.92 5.01z"/>
  <path d="M1637.35 1011.93 c-10.23 -2.81 -26.68 -10.23 -26.68 -12.03 0 -3.41 7.42 -15.24 10.03 -16.05 1.81 -0.60 7.42 0.60 12.24 2.81 19.46 8.42 38.71 7.02 41.12 -3.01 2.01 -7.62 -3.61 -12.03 -21.86 -16.85 -19.26 -5.22 -22.47 -6.62 -30.09 -13.64 -16.85 -15.85 -7.62 -45.93 16.05 -52.35 16.45 -4.61 45.13 -1.20 55.76 6.62 3.81 2.61 3.81 2.81 -1 11.63 l-4.61 9.03 -9.83 -3.81 c-13.44 -5.01 -30.49 -4.81 -35.70 0.40 -2.21 2.21 -4.01 5.01 -4.01 6.02 0 4.01 8.02 9.83 16.45 12.03 38.11 9.83 46.94 17.65 45.33 40.72 -0.80 10.63 -1.60 12.64 -8.02 18.65 -12.84 11.63 -34.10 15.44 -55.16 9.83z"/>
  <path d="M2103.10 1012.13 c-12.03 -3.01 -27.08 -10.43 -27.08 -13.44 0 -1.20 2.81 -4.81 6.02 -8.22 6.62 -6.42 6.02 -6.42 26.08 -0.60 12.44 3.61 22.67 2.81 28.28 -2.21 9.03 -8.22 3.01 -14.84 -19.06 -20.86 -19.26 -5.22 -25.27 -8.22 -31.89 -16.05 -10.63 -12.64 -8.83 -31.49 4.21 -42.12 9.23 -7.62 17.65 -10.03 34.90 -10.03 13.04 0 34.10 5.82 36.71 10.03 1.60 2.61 -6.62 18.05 -9.63 18.05 -1.20 0 -6.02 -1.40 -10.43 -3.01 -11.83 -4.21 -27.68 -3.81 -31.69 0.60 -8.02 8.83 -2.81 14.04 20.66 21.26 21.26 6.42 28.48 10.83 32.69 19.86 14.84 30.89 -18.45 56.97 -59.77 46.74z"/>
  <path d="M1322.83 1010.33 c-0.60 -1.40 -0.80 -26.28 -0.60 -55.56 l0.60 -53.15 11.43 -0.60 11.23 -0.60 24.87 31.69 24.67 31.49 0.60 -31.49 0.60 -31.49 12.84 0 13.04 0 0 56.16 0 56.16 -10.03 0 -10.03 0 -12.24 -15.44 c-6.62 -8.63 -17.25 -22.06 -23.47 -30.09 -6.42 -8.02 -12.84 -14.24 -14.44 -14.04 -2.41 0.40 -3.01 5.62 -3.61 30.09 l-0.60 29.49 -12.03 0 c-7.82 0 -12.24 -0.80 -12.84 -2.61z"/>
  <path d="M1567.74 992.48 c-0.60 -11.43 -0.80 -29.28 -0.40 -39.72 0.40 -10.43 1 -26.48 1 -35.50 l0.20 -16.65 12.03 0 12.03 0 0.40 48.14 c0.20 26.48 0.40 51.55 0.60 55.76 l0 7.42 -12.44 0.60 -12.24 0.60 -1.20 -20.66z"/>
  <path d="M1718.98 956.77 l0 -56.16 13.04 0 13.04 0 -0.40 55.76 -0.60 55.56 -12.44 0.60 -12.64 0.60 0 -56.36z"/>
  <path d="M1769.13 956.77 l0 -56.16 35.10 0 c31.49 0 36.10 0.40 43.33 4.01 16.45 8.42 20.66 26.68 9.63 41.92 -5.82 8.22 -5.82 8.63 -2.41 11.43 2.01 1.40 4.01 2.81 4.61 2.81 3.41 0.20 8.02 12.84 8.02 21.86 0 8.42 -1 11.23 -6.22 17.25 -9.43 10.63 -20.26 13.04 -59.37 13.04 l-32.69 0 0 -56.16z m68.20 30.09 c5.01 -5.01 5.01 -10.23 0.20 -16.25 -3.61 -4.41 -5.22 -4.81 -22.67 -4.81 l-18.65 0 -0.60 12.64 -0.60 12.44 19.26 0 c16.45 0 19.66 -0.60 23.07 -4.01z m-5.22 -44.33 c6.02 -4.81 6.82 -11.83 1.81 -16.25 -4.61 -4.01 -19.66 -6.22 -30.29 -4.41 l-8.42 1.40 0 10.43 c0 5.62 0.60 11.03 1.40 11.63 0.60 0.80 7.82 1.40 15.65 1.40 11.63 0 15.65 -0.80 19.86 -4.21z"/>
  <path d="M1887.47 956.77 l0 -56.16 12.64 0 12.44 0 -0.60 32.49 c-0.40 17.85 -0.20 38.31 0.60 45.13 l1.40 12.64 25.88 0 25.88 0 0 11.03 0 11.03 -39.11 0 -39.11 0 0 -56.16z"/>
  <path d="M1980.94 1005.51 c-0.60 -4.21 -1.20 -29.49 -1.20 -56.16 l0 -48.74 41.12 0 41.12 0 0 11.03 0 11.03 -28.08 0 -28.08 0 0 11.03 0 11.03 25.07 0 25.07 0 0 10.03 0 10.03 -21.86 0 c-12.03 0 -23.27 0.60 -25.07 1.20 -2.41 1 -3.21 4.21 -3.21 13.04 l0 11.83 29.08 0 29.08 0 0 11.03 0 11.03 -40.92 0 -40.72 0 -1.40 -7.42z"/>
  <path d="M1725.40 848.46 c-28.48 -4.01 -47.94 -12.24 -65.19 -28.08 -22.87 -21.06 -30.89 -51.35 -21.66 -81.84 6.62 -22.26 21.86 -39.72 50.35 -58.77 l5.01 -3.41 -4.61 -5.62 c-16.45 -21.26 -23.47 -40.92 -21.86 -62.18 2.61 -34.90 28.08 -60.78 65.59 -66.79 38.11 -6.22 68 1.40 89.46 22.87 17.25 17.25 22.26 44.53 12.84 69.80 -5.01 13.64 -22.67 33.70 -38.11 43.53 -5.62 3.61 -10.03 7.02 -10.03 8.02 0 1.81 46.13 44.93 46.94 43.93 0.40 -0.40 4.01 -9.83 7.82 -20.86 5.42 -15.85 7.82 -20.26 11.03 -20.66 3.61 -0.60 50.55 13.04 50.55 14.64 0 5.01 -12.03 39.51 -18.25 51.75 l-8.22 16.45 6.82 6.02 c3.61 3.21 12.24 11.03 19.26 17.25 l12.44 11.23 -19.26 22.47 c-10.63 12.44 -20.06 22.26 -21.06 21.86 -0.80 -0.40 -9.23 -7.62 -18.65 -16.05 -9.23 -8.63 -17.45 -15.65 -18.25 -15.65 -0.80 0 -5.01 2.61 -9.63 5.82 -28.88 19.66 -68.20 29.08 -103.30 24.27z m42.72 -54.36 c10.23 -2.81 27.48 -13.64 26.68 -16.85 -1 -4.21 -61.18 -61.18 -64.59 -61.18 -2.01 0 -8.42 4.61 -14.44 10.43 -13.44 12.64 -18.05 25.07 -14.64 38.91 2.81 11.03 14.84 23.47 26.48 27.68 10.03 3.41 29.49 4.01 40.52 1z m-11.03 -149.63 c8.22 -5.42 18.25 -15.24 21.26 -21.06 1.60 -3.01 2.81 -9.23 2.81 -13.84 0 -6.62 -1.20 -9.43 -6.82 -15.04 -6.22 -6.22 -8.02 -6.82 -18.05 -6.82 -14.64 0 -20.46 3.01 -25.27 13.04 -4.81 9.83 -5.01 14.84 -1.20 23.87 3.21 7.82 16.65 23.27 20.06 23.27 1.20 0 4.61 -1.40 7.22 -3.41z"/>
  <path d="M1442.18 845.65 c-37.31 -8.63 -72.61 -30.09 -92.07 -55.76 -11.23 -14.84 -23.47 -40.52 -27.48 -56.97 -4.41 -18.45 -4.61 -57.17 -0.20 -75.42 14.24 -58.97 62.58 -103.50 124.56 -115.33 22.06 -4.21 60.78 -2.61 81.03 3.21 24.27 7.02 54.96 24.67 68.60 39.31 l5.01 5.22 -21.66 21.06 -21.66 21.06 -8.83 -8.02 c-36.51 -33.70 -100.29 -33.10 -134.39 1.20 -36.31 37.11 -36.51 102.10 -0.20 137.80 28.28 28.08 71.81 35.10 110.12 18.05 l7.42 -3.41 0 -43.93 0 -43.73 31.09 0 31.09 0 0 5.62 c0 3.01 0 30.29 0 60.58 l0 55.16 -5.62 4.61 c-8.83 7.42 -40.32 21.86 -57.57 26.48 -20.06 5.42 -71.81 7.42 -89.26 3.21z"/>
  <path d="M1949.65 695.01 l0 -149.43 108.31 0 108.31 0 0 27.08 0 27.08 -67.60 0 c-37.31 0 -71.21 0.60 -75.22 1.20 l-7.62 1.40 0 37.71 0 37.91 66.19 0 66.19 0 0 28.08 0 28.08 -65.59 0.40 -65.79 0.60 -0.60 54.76 -0.40 54.56 -33.10 0 -33.10 0 0 -149.43z"/>
 </g>
</svg>
