<?xml version="1.0" encoding="utf-8"?>
<!DOCTYPE svg PUBLIC "-//W3C//DTD SVG 1.0//EN" "http://www.w3.org/TR/2001/REC-SVG-20010904/DTD/svg10.dtd">
<svg version="1.0" xmlns="http://www.w3.org/2000/svg" width="2760px" height="1540px" viewBox="0 0 2760 1540" preserveAspectRatio="xMidYMid meet">
 <g fill="#000000">
  <path d="M1119.85 1198.07 l-6.62 -0.80 0 -27.08 0 -26.88 20.66 0 c15.44 0 21.66 0.80 25.07 3.21 4.01 2.81 4.41 2.81 4.41 0 0 -2.21 2.01 -3.21 6.02 -3.21 4.41 0 6.02 -1 6.02 -3.61 0 -2.01 1.40 -5.62 3.21 -8.02 2.41 -3.61 5.01 -4.41 13.04 -4.41 l9.83 0 0 7.62 0 7.42 40.32 0.60 c38.91 0.40 40.52 0.60 44.13 5.01 l3.61 4.41 0.20 -4.61 c0 -4.21 0.80 -4.61 14.64 -4.81 36.51 -0.40 86.65 1 87.25 2.41 0.40 1 4.01 0.40 8.02 -1.40 5.62 -2.41 11.23 -2.81 23.47 -1.81 20.26 1.40 69 1.60 82.24 0 5.62 -0.60 13.24 -0.40 17.05 0.60 6.82 1.81 7.02 2.01 7.02 12.24 0 5.82 0.60 10.43 1.40 10.43 0.60 0 3.21 -5.01 5.82 -11.03 l4.61 -11.03 11.43 0 c7.42 0 11.83 1 12.44 2.61 0.80 2.01 1.20 2.01 1.20 0 0.20 -2.01 8.02 -2.61 32.29 -2.61 28.48 0 32.09 0.40 32.09 3.41 0 2.81 0.40 2.81 4.21 -0.60 6.42 -5.82 27.68 -6.42 36.91 -1 5.62 3.21 7.02 3.41 7.02 1.20 0 -2.21 2.61 -3.01 10.03 -3.01 8.63 0 11.03 0.80 15.04 5.62 l4.81 5.42 0.20 -5.42 c0 -5.42 0.40 -5.62 10.03 -5.62 l10.03 0 0 27.08 0 27.08 -10.63 0 c-8.63 0 -11.03 -0.80 -13.24 -4.41 l-3.01 -4.61 -1.20 5.01 c-0.80 3.61 -2.81 5.22 -6.82 5.62 -8.42 1 -15.24 -1.20 -15.24 -5.01 0 -2.81 -0.60 -2.81 -4.21 0.60 -6.22 5.62 -33.50 5.62 -39.72 0 -3.81 -3.41 -4.21 -3.41 -4.21 -0.60 0 2.81 -2.01 3.41 -11.03 3.41 l-11.03 0 0 -17.05 c0 -13.84 -0.60 -17.05 -3.01 -17.05 -2.41 0 -3.01 3.21 -3.01 17.05 l0 17.05 -21.86 0 c-20.06 0 -21.86 -0.40 -22.87 -4.01 -1.40 -5.22 -8.22 -5.22 -11.63 0.20 -2.61 3.61 -5.22 4.01 -33.90 5.01 -17.05 0.40 -33.50 0.20 -36.51 -0.40 -5.62 -1.20 -5.62 -1.20 -5.62 -18.05 0 -15.44 -0.40 -16.85 -4.01 -16.85 -3.61 0 -4.01 1.40 -4.01 17.05 l0 17.05 -10.03 0 -10.03 0 0 -15.85 c0 -15.85 -2.01 -21.06 -6.62 -16.45 -2.81 2.81 -16.85 2.81 -18.45 0 -1 -1.40 -2.81 -0.80 -5.22 1.40 -3.61 3.21 -3.61 3.61 -0.40 7.22 2.21 2.61 4.01 3.01 5.42 1.60 2.81 -2.81 15.85 -2.61 18.85 0.40 1.40 1.40 2.41 5.82 2.41 10.23 0 6.82 -0.80 8.02 -7.02 10.63 -3.81 1.40 -11.03 2.81 -16.05 2.81 -5.01 0 -12.24 -1.40 -16.05 -2.81 -5.42 -2.41 -7.02 -2.41 -7.02 -0.60 0 2.01 -11.23 2.41 -50.15 2.21 -49.94 -0.40 -50.15 -0.40 -54.16 -5.22 -3.81 -4.61 -3.81 -4.61 -4.01 -0.40 0 4.01 -1.20 4.21 -30.09 5.22 -46.33 1.60 -90.26 -0.40 -90.26 -3.81 0 -2.21 -0.80 -2.21 -4.61 0.20 -4.81 3.21 -27.88 5.42 -38.91 3.81z m459.93 -34.10 c-0.40 -0.60 -2.21 -0.60 -3.81 -0.20 -2.61 0.60 -2.61 1.60 0.20 8.63 l3.41 8.02 0.60 -7.82 c0.40 -4.21 0.20 -8.02 -0.40 -8.63z m-438.07 10.03 c3.41 -3.01 3.41 -3.41 0.40 -7.02 -5.01 -5.42 -6.82 -4.41 -6.82 3.41 0 7.82 1 8.42 6.42 3.61z m516.70 1 c3.21 -3.21 3.01 -4.61 -0.80 -8.63 -2.41 -2.41 -3.81 -2.61 -6.02 -0.80 -1.60 1.20 -2.81 3.41 -2.81 4.61 0 2.61 4.01 7.22 6.02 7.22 0.60 0 2.21 -1 3.61 -2.41z"/>
  <path d="M1207.90 1115.03 c-36.91 -5.62 -69 -27.68 -83.64 -57.37 -14.84 -30.29 -14.64 -82.04 0.20 -112.73 8.22 -16.65 28.68 -37.11 45.73 -45.33 21.06 -10.23 34.30 -13.04 63.58 -13.04 38.11 0 62.98 7.62 84.04 25.47 7.02 6.02 8.02 8.02 8.02 15.24 0 7.62 -1.20 9.43 -14.44 22.87 -17.05 17.25 -22.06 18.45 -34.10 8.63 -12.44 -10.23 -29.08 -16.85 -42.72 -16.85 -21.46 0.20 -42.72 14.84 -52.55 36.51 -15.04 32.69 6.42 73.21 42.72 80.63 10.23 2.21 12.84 2.01 25.67 -2.41 l14.24 -4.61 0.60 -31.49 0.60 -31.69 21.46 0 c11.83 0 24.87 0.60 29.08 1.20 l7.42 1.40 0 48.74 0 48.74 -5.82 4.21 c-9.03 6.42 -29.89 15.44 -43.13 19.06 -15.24 3.81 -50.55 5.42 -66.99 2.81z"/>
  <path d="M1403.07 1115.03 c-45.33 -6.02 -67.19 -30.09 -64.59 -70.81 1.40 -23.27 9.03 -38.31 25.47 -50.35 l9.43 -7.02 -5.62 -11.23 c-5.22 -10.03 -5.82 -13.64 -5.82 -29.69 0 -15.85 0.80 -19.86 5.22 -28.88 10.43 -20.86 30.49 -30.49 63.78 -30.49 31.09 0 50.55 8.22 60.98 25.88 4.81 8.42 5.42 11.03 5.42 29.28 0 18.45 -0.40 20.86 -6.02 30.89 -3.21 5.82 -9.83 13.64 -14.44 17.25 l-8.42 6.42 7.42 7.22 c4.21 4.21 8.22 7.42 8.83 7.42 0.80 0 2.41 -5.01 3.81 -11.03 l2.41 -11.03 10.23 0.20 c5.62 0 17.45 2.61 26.28 5.42 13.64 4.61 16.25 6.22 16.65 10.23 1 6.22 -4.81 26.68 -10.83 38.71 l-4.81 9.43 11.03 9.43 c9.63 8.22 11.03 10.63 11.03 16.65 0 6.02 -2.41 10.03 -13.24 22.87 -16.65 19.46 -21.06 20.26 -36.51 6.42 l-10.03 -9.03 -14.84 7.02 c-20.66 9.83 -44.33 12.84 -72.81 8.83z m39.51 -54.16 c4.01 -2.21 3.81 -2.41 -3.61 -10.23 -4.41 -4.41 -12.24 -11.63 -17.45 -16.05 -9.43 -8.02 -9.63 -8.02 -13.64 -4.41 -6.62 6.02 -10.23 14.24 -8.02 18.45 2.61 5.01 10.43 11.83 16.25 14.24 5.62 2.41 20.26 1.40 26.48 -2.01z m-6.62 -108.31 c7.42 -7.42 7.82 -12.64 1.20 -17.05 -5.82 -3.81 -12.03 -2.21 -16.25 4.21 -3.01 4.61 -2.81 5.42 1.20 12.03 2.41 3.81 5.01 7.02 6.02 7.02 1 0 4.41 -2.81 7.82 -6.22z"/>
  <path d="M1562.53 1000.90 l0 -112.33 84.24 0 84.24 0 0 26.08 c0 19.46 -0.60 26.08 -2.41 26.28 -1.40 0.20 -25.88 0.20 -54.16 -0.20 l-51.75 -0.40 0 21.26 0 21.26 48.14 0 48.14 0 0 27.08 0 27.08 -48.14 0 -48.14 0 0 38.11 0 38.11 -30.09 0 -30.09 0 0 -112.33z"/>
  <path d="M1376.99 845.45 c-12.03 -7.02 -27.48 -17.05 -34.10 -22.26 -10.03 -8.22 -13.04 -9.63 -19.46 -9.03 -5.62 0.40 -11.83 -1.81 -25.07 -8.63 -65.79 -34.10 -115.94 -100.29 -132.18 -174.31 -5.01 -22.26 -4.61 -75.22 0.80 -99.69 2.21 -10.43 4.41 -20.46 5.01 -22.06 0.80 -2.01 -3.21 -6.62 -11.23 -13.24 -16.65 -13.64 -30.49 -30.69 -39.11 -48.94 -6.42 -12.84 -7.22 -16.85 -7.42 -30.09 l0 -15.04 26.08 0.20 c22.06 0.20 29.89 1.20 51.15 6.42 13.84 3.41 26.68 6.82 28.48 7.42 3.21 1.20 3.01 0 -1.20 -11.23 -6.82 -18.25 -9.63 -37.91 -8.83 -60.98 l0.60 -20.06 9.03 -0.60 c11.03 -0.60 32.29 9.03 57.77 26.28 9.43 6.42 16.45 10.23 16.45 8.63 0 -2.81 28.88 -16.25 49.54 -22.87 26.88 -8.83 44.33 -11.23 79.83 -11.03 24.07 0 38.71 1 50.15 3.41 34.30 7.42 65.19 20.26 93.07 38.71 19.46 13.04 54.36 46.33 54.36 51.95 0 3.61 1.60 3.81 23.27 3.21 12.84 -0.40 25.47 -0.20 28.08 0.40 4.61 1.20 5.01 2.01 4.41 12.84 l-0.60 11.43 -15.44 0.60 c-14.64 0.60 -15.65 0.80 -15.65 5.01 0 4.01 1.40 4.81 14.04 6.82 7.82 1.20 19.26 4.81 25.67 7.82 l11.43 5.82 0 11.03 0 11.03 -8.42 0.60 c-5.01 0.40 -11.03 -0.80 -14.64 -2.61 -3.61 -1.81 -6.82 -3.01 -7.22 -2.41 -0.40 0.40 0.40 4.01 2.01 7.82 5.01 12.03 11.03 46.13 12.44 70 3.21 56.97 -9.03 102.70 -40.12 150.24 -33.30 50.95 -83.44 88.66 -140.61 106.11 -26.48 8.02 -41.32 10.23 -70 10.23 l-23.67 0 3.21 5.01 c1.81 2.61 3.21 8.02 3.21 12.03 0 6.62 -0.40 7.02 -6.42 7.02 -4.41 -0.20 -14.24 -4.61 -28.68 -13.04z m71.61 -66.19 c47.94 -8.22 87.05 -29.49 120.95 -65.59 54.56 -58.17 70.40 -126.17 44.93 -194.76 -3.41 -9.03 -6.62 -18.85 -7.22 -22.06 -1.20 -6.62 -1 -6.62 -10.83 -1 -5.62 3.21 -7.62 5.22 -6.62 7.62 3.61 8.02 6.82 28.88 6.82 44.53 0 21.46 -2.81 35.30 -10.23 49.94 -7.22 14.64 -15.85 21.86 -25.67 21.86 -6.62 0 -7.62 -0.80 -9.83 -6.62 -1.40 -3.61 -9.63 -13.64 -18.25 -22.06 l-15.85 -15.24 -6.22 9.43 c-5.62 8.42 -5.82 9.63 -3.01 11.43 27.28 16.65 30.89 21.66 30.89 44.13 0 19.86 -2.21 26.88 -12.44 40.72 -7.02 9.43 -8.42 10.43 -15.65 10.43 -7.42 0 -8.02 -0.40 -8.02 -5.62 0 -3.01 1 -8.63 2.01 -12.44 3.01 -10.23 3.01 -23.47 -0.20 -27.28 -1.40 -1.60 -8.02 -5.62 -14.84 -8.63 -6.82 -3.21 -16.05 -9.03 -20.46 -13.04 l-8.02 -7.22 -13.84 3.01 c-7.62 1.60 -15.65 3.01 -17.85 3.01 -3.81 0 -4.01 1.40 -4.01 24.67 0 29.69 -3.41 41.32 -21.46 75.62 -13.24 25.07 -19.66 41.52 -19.66 50.35 0 5.42 0.40 5.62 11.63 6.42 26.08 1.60 36.91 1.20 52.95 -1.60z m-132.78 -25.27 c2.21 -1.20 1.40 -1.81 -3.01 -1.81 -3.21 0 -8.02 -0.60 -10.43 -1.20 -3.81 -1 -4.61 -0.40 -4.61 3.21 0 4.01 0.60 4.41 7.62 3.01 4.01 -0.80 8.83 -2.21 10.43 -3.21z m-41.32 -61.98 c3.81 0 10.83 1.81 15.85 4.01 5.01 2.21 13.44 4.61 18.85 5.22 l9.63 1 -14.04 -6.22 c-7.62 -3.41 -18.65 -9.83 -24.47 -14.24 l-10.63 -8.02 0.20 -15.44 c0 -9.23 1.60 -19.46 3.61 -25.47 3.21 -9.03 4.21 -10.03 10.03 -10.63 4.41 -0.40 8.22 0.60 11.03 3.01 10.43 9.23 12.03 9.43 5.62 0.80 -7.82 -11.03 -8.83 -22.87 -2.21 -31.09 10.83 -13.84 33.30 -23.27 54.96 -23.27 l12.24 0 3.01 -13.24 c2.21 -9.03 2.41 -13.44 1 -14.44 -1.20 -0.60 -26.48 -1.40 -56.36 -1.40 -51.55 -0.20 -54.96 -0.40 -72.41 -5.22 l-18.45 -5.22 -1.20 10.23 c-0.60 5.62 -2.01 17.05 -3.21 25.27 -3.41 25.07 2.41 58.37 15.04 85.65 7.02 15.24 22.67 40.52 29.89 48.34 l4.21 4.81 0.60 -7.22 c0.60 -6.62 1.20 -7.22 7.22 -7.22z m293.05 -154.85 c-1.81 -11.43 -7.42 -23.67 -12.84 -28.68 -3.81 -3.21 -4.81 -3.41 -6.22 -1 -2.81 4.61 -2.41 10.23 2.01 19.46 4.01 9.03 12.44 18.65 16.05 18.65 1.60 0 2.01 -2.61 1 -8.42z m-62.38 -54.76 c6.62 -12.03 14.24 -15.44 34.90 -14.84 l17.85 0.40 8.42 -9.23 8.42 -9.03 -9.63 -9.43 c-50.35 -50.35 -123.16 -72.61 -185.14 -56.56 -21.06 5.62 -37.71 11.63 -37.91 14.04 -0.20 0.80 8.02 8.63 18.25 17.25 19.06 16.05 49.14 46.33 61.78 61.98 6.82 8.42 7.22 8.63 13.04 6.22 3.41 -1.40 14.84 -2.41 26.08 -2.61 16.45 0 21.66 0.80 29.08 4.21 5.01 2.41 9.43 4.41 10.03 4.41 0.60 0.20 2.81 -3.01 4.81 -6.82z"/>
 </g>
 <g fill="#ffffff">
  <path d="M0 770.23 l0 -770.23 1380 0 1380 0 0 770.23 0 770.23 -1380 0 -1380 0 0 -770.23z m1144.92 421.22 c2.61 0 7.42 -2.61 10.63 -5.82 4.81 -4.81 5.82 -7.62 5.82 -15.24 0 -7.62 -1 -10.43 -5.82 -15.24 -5.42 -5.42 -7.02 -5.82 -21.06 -5.82 l-15.24 0 0 20.86 0 21.06 6.62 0.80 c3.41 0.40 8.22 0.60 10.43 0.20 2.21 -0.40 6.02 -0.80 8.63 -0.80z m87.45 0 c3.01 -1 6.22 -4.21 7.62 -7.02 3.61 -7.82 -0.40 -14.24 -10.83 -17.25 -4.81 -1.40 -9.83 -3.61 -11.43 -5.01 -4.41 -4.01 3.61 -7.22 12.03 -4.81 8.42 2.41 12.24 -0.40 7.22 -5.62 -5.01 -4.81 -19.66 -4.61 -25.27 0.40 -9.23 8.42 -3.61 19.46 11.43 22.47 8.02 1.60 9.83 4.21 5.82 8.42 -2.81 2.61 -4.41 2.81 -11.43 0.60 -12.84 -3.81 -17.25 1.81 -5.42 6.82 7.62 3.41 13.44 3.61 20.26 1z m111.72 -3.21 c4.61 -4.01 5.01 -13.44 0.80 -16.85 -1.60 -1.20 -6.82 -3.61 -11.43 -5.01 -9.23 -2.61 -12.44 -7.82 -6.02 -9.83 2.21 -0.80 6.42 -0.40 9.43 0.80 3.61 1.40 6.42 1.40 7.62 0.20 3.41 -3.41 0 -7.62 -7.62 -9.03 -12.84 -2.41 -23.07 3.41 -23.07 12.84 0 6.82 3.21 9.63 14.44 13.04 9.83 2.81 12.44 8.22 5.22 10.03 -2.61 0.60 -7.22 0.20 -10.43 -0.80 -7.62 -3.01 -9.23 -2.81 -9.23 1.60 0 8.02 22.26 10.43 30.29 3.01z m41.92 0.20 c0 -4.81 -0.60 -5.01 -11.03 -5.01 -10.63 0 -11.03 -0.20 -11.03 -5.22 0 -5.22 0.20 -5.22 10.03 -4.41 9.43 1 10.03 0.80 10.03 -3.61 0 -4.41 -0.80 -4.81 -10.03 -4.81 -8.63 0 -10.03 -0.60 -10.03 -4.01 0 -3.61 1.40 -4.01 11.03 -4.01 9.63 0 11.03 -0.40 11.03 -4.01 0 -3.61 -1.40 -4.01 -16.05 -4.01 l-16.05 0 0 21.06 0 20.86 15.65 0.80 c8.42 0.20 15.65 0.80 16.05 1 0.20 0.20 0.40 -1.81 0.40 -4.61z m39.11 2.21 c7.62 -3.21 8.63 -5.42 4.01 -9.23 -2.41 -2.01 -3.81 -2.01 -5.42 -0.40 -3.41 3.41 -13.84 3.01 -18.05 -1 -4.41 -4.01 -4.61 -14.04 -0.20 -19.06 3.61 -4.01 14.64 -4.81 18.25 -1.20 3.21 3.21 7.42 -0.80 5.82 -5.22 -3.61 -9.03 -22.47 -8.42 -31.89 0.80 -10.43 10.63 -6.82 29.08 7.22 35.30 8.02 3.41 11.83 3.41 20.26 0z m61.18 -20.46 l0 -20.86 -5.01 0 -5.01 0 0 20.86 c0 18.25 0.40 21.06 3.61 21.86 1.81 0.40 4.01 0.40 5.01 0 0.80 -0.40 1.40 -10.23 1.40 -21.86z m34.10 20.26 c4.81 -2.61 6.02 -4.41 6.02 -9.83 0 -8.02 -5.01 -13.04 -14.84 -14.64 -8.83 -1.40 -10.83 -3.81 -6.42 -8.22 2.81 -2.81 4.21 -2.81 9.63 -0.80 7.02 2.61 11.03 0.80 9.03 -4.21 -1.60 -4.41 -14.24 -6.02 -22.06 -2.61 -13.64 5.62 -11.43 19.66 3.61 23.47 4.81 1.20 9.83 3.41 11.03 4.81 3.21 3.81 -2.81 7.82 -9.43 6.22 -9.63 -2.41 -13.24 -2.21 -14.04 0.40 -1 2.81 10.03 8.22 17.05 8.42 2.61 0 7.22 -1.40 10.43 -3.01z m151.04 -5.01 c4.21 -4.61 5.42 -8.02 5.42 -14.84 0 -21.06 -24.27 -30.69 -39.11 -15.24 -10.63 11.03 -6.42 29.89 8.02 36.31 7.62 3.41 19.66 0.40 25.67 -6.22z m23.47 -6.22 l1 -12.84 9.03 12.44 c6.42 8.83 10.43 12.64 13.64 12.64 4.21 0 4.41 -0.60 4.41 -21.06 0 -19.66 -0.20 -21.06 -4.01 -21.06 -3.61 0 -4.01 1.40 -4.01 12.03 0 6.62 -0.60 12.03 -1.60 12.03 -0.80 0 -5.62 -5.42 -10.43 -12.03 -6.22 -8.42 -10.43 -12.03 -13.44 -12.03 -4.41 0 -4.61 0.60 -4.61 20.86 0 20.46 1 23.87 7.02 22.47 1.20 -0.20 2.41 -6.22 3.01 -13.44z m-493.83 8.83 c-0.40 -2.81 -3.21 -3.81 -11.63 -4.61 -9.43 -0.80 -11.03 -1.60 -11.03 -5.01 0 -3.41 1.60 -4.01 10.63 -4.61 8.83 -0.60 10.63 -1.20 10.03 -4.01 -0.40 -2.61 -3.01 -3.61 -10.23 -4.01 -8.42 -0.60 -9.43 -1.20 -9.43 -5.22 0 -4.41 0.60 -4.61 9.23 -3.61 8.83 1 12.64 -1 12.84 -6.02 0 -1 -7.22 -1.60 -16.05 -1.60 l-16.05 0 0 21.06 0 21.06 16.25 0 c14.24 0 16.05 -0.40 15.44 -3.41z m56.56 -17.65 l0 -21.06 -5.01 0 -5.01 0 0 21.06 0 21.06 5.01 0 5.01 0 0 -21.06z m20.46 8.83 l0.60 -12.24 9.03 12.24 c6.22 8.42 10.43 12.03 13.64 12.24 4.21 0 4.41 -0.60 4.41 -21.06 0 -21.06 0 -21.06 -5.01 -21.06 -4.61 0 -4.81 0.80 -5.42 12.03 l-0.60 12.24 -9.03 -12.03 c-6.22 -8.42 -10.43 -12.24 -13.44 -12.24 -4.41 0 -4.61 0.60 -4.61 21.06 0 21.06 0 21.06 5.01 21.06 4.61 0 4.81 -0.80 5.42 -12.24z m178.12 -4.81 l0 -17.05 7.02 0 c5.62 0 7.02 -0.80 7.02 -4.01 0 -3.81 -1.40 -4.01 -18.05 -4.01 -16.45 0 -18.05 0.40 -18.05 3.81 0 3.01 1.60 4.21 6.62 4.61 l6.42 0.60 0.60 16.65 c0.60 14.84 1 16.45 4.41 16.45 3.61 0 4.01 -1.40 4.01 -17.05z m84.24 13.04 c1.81 -3.21 4.21 -4.01 12.24 -4.01 8.42 0 10.43 0.60 11.23 4.01 0.80 2.81 2.81 4.01 6.62 4.01 l5.62 0 -9.23 -21.06 c-8.63 -19.06 -9.83 -21.06 -14.84 -21.06 -3.81 0 -5.82 1.40 -7.22 5.62 -1.20 3.01 -5.22 12.44 -9.23 21.06 l-7.02 15.44 4.81 0 c2.81 0 5.82 -1.60 7.02 -4.01z m56.16 -13.04 l0 -17.05 6.02 0 c3.41 0 6.02 -0.40 6.02 -0.80 0 -0.40 0.60 -2.21 1.20 -4.01 1 -2.81 -1.20 -3.21 -18.05 -3.21 -17.85 0 -19.26 0.20 -19.26 4.01 0 3.21 1.40 4.01 7.02 4.01 l7.02 0 0 17.05 c0 16.85 0 17.05 5.01 17.05 5.01 0 5.01 -0.20 5.01 -17.05z m28.08 -4.01 l0 -21.06 -5.01 0 -5.01 0 0 21.06 0 21.06 5.01 0 5.01 0 0 -21.06z m-433.26 -29.49 c5.01 -5.42 5.01 -7.62 0.20 -7.62 -3.61 0 -10.23 6.82 -10.23 10.43 0 3.21 6.02 1.40 10.03 -2.81z m78.23 -35.10 c12.44 -3.21 33.50 -12.44 42.32 -18.65 l5.82 -4.21 0 -42.72 0 -42.72 -7.42 -1.40 c-4.21 -0.60 -14.64 -1.20 -23.07 -1.20 l-15.44 0 -0.60 31.69 -0.60 31.49 -13.04 4.61 c-32.09 11.23 -65.59 -1 -80.03 -29.28 -17.45 -34.30 -4.81 -74.82 28.48 -92.07 9.03 -4.81 12.84 -5.42 28.48 -5.42 15.44 -0.20 19.66 0.60 29.69 5.22 6.42 3.01 15.04 8.22 19.06 11.63 l7.42 6.02 14.44 -14.44 c8.02 -8.02 14.64 -15.65 14.64 -16.85 0 -1.40 -3.61 -5.62 -8.02 -9.43 -19.66 -16.65 -46.33 -25.47 -78.03 -25.47 -35.70 0 -63.38 11.03 -84.85 33.90 -15.04 15.85 -22.47 29.49 -26.68 49.34 -12.03 56.97 14.04 106.91 65.99 126.37 24.07 9.03 55.16 10.43 81.44 3.61z m183.53 1 c9.03 -2.21 30.09 -12.64 32.09 -15.65 2.41 -3.81 6.42 -2.01 19.26 9.23 l12.84 11.23 6.82 -7.82 c3.61 -4.21 9.83 -11.43 13.84 -16.25 l7.02 -8.63 -13.24 -12.03 -13.44 -12.03 6.42 -12.44 c8.02 -15.85 13.84 -35.10 11.23 -36.71 -3.21 -2.01 -32.49 -10.83 -35.90 -10.83 -2.21 0 -3.81 2.41 -4.81 7.42 -1.81 9.63 -7.22 23.07 -9.03 22.26 -0.80 -0.40 -8.22 -7.02 -16.65 -14.64 l-15.24 -14.24 12.44 -9.03 c17.25 -12.64 24.47 -25.67 24.47 -44.93 0 -11.63 -1 -15.65 -5.42 -23.27 -13.24 -22.26 -47.94 -31.89 -80.03 -21.86 -16.05 4.81 -26.08 13.04 -32.69 26.48 -9.23 18.45 -6.22 40.52 7.82 58.97 l4.81 6.22 -12.24 8.83 c-24.47 17.85 -34.30 42.92 -26.88 68.60 5.22 18.05 18.65 30.49 41.32 38.51 18.25 6.62 45.13 7.62 65.19 2.61z m163.47 -37.71 l0 -38.11 48.14 0 48.14 0 0 -21.06 0 -21.06 -48.14 0 -48.14 0 0 -27.08 0 -27.28 51.75 0.20 c28.28 0.20 52.75 0.20 54.16 0 1.81 0 2.41 -5.42 2.41 -20.06 l0 -20.06 -78.23 0 -78.23 0 0 106.31 0 106.31 24.07 0 24.07 0 0 -38.11z m-217.63 -228.66 c-12.64 -17.25 -19.46 -36.31 -20.66 -57.37 -1.20 -22.47 1.20 -30.49 18.85 -63.99 20.86 -39.72 25.47 -60.58 20.06 -87.25 -1.81 -8.22 -3.21 -15.44 -3.21 -15.85 0 -0.40 2.41 0 5.22 0.60 6.62 1.81 27.88 -2.21 36.71 -6.82 l7.02 -3.61 7.82 8.83 c5.01 5.82 13.04 11.43 22.47 15.85 8.02 4.01 15.65 8.22 16.65 9.63 4.01 4.81 4.81 18.25 1.81 32.09 -1.40 7.42 -2.01 13.44 -1.20 13.44 2.81 0 17.05 -20.66 19.66 -27.88 3.61 -10.83 2.81 -26.28 -1.81 -33.70 -4.41 -7.22 -15.04 -15.65 -27.68 -21.66 -4.61 -2.21 -8.42 -4.61 -8.42 -5.42 0 -0.80 3.21 -5.82 7.42 -11.03 4.01 -5.42 9.03 -13.64 11.23 -18.45 l3.81 -8.83 5.22 6.62 c3.01 3.81 11.83 13.04 19.86 20.66 8.02 7.62 15.65 17.05 17.05 20.66 1.40 3.81 3.01 6.82 3.81 6.82 4.01 0 14.64 -11.83 19.66 -21.86 12.84 -25.27 13.44 -62.18 1.81 -85.25 l-4.01 -8.02 4.61 -3.81 c8.42 -6.82 28.88 -15.44 42.12 -17.65 15.85 -2.61 33.50 0 49.94 7.42 8.63 3.81 12.84 4.81 14.24 3.41 6.62 -6.62 -6.22 -16.25 -29.08 -22.06 -24.27 -5.82 -61.38 2.01 -80.83 17.45 -5.42 4.21 -8.63 5.22 -8.63 2.41 0 -3.61 15.04 -19.06 27.28 -27.68 17.65 -12.64 31.69 -17.25 53.96 -17.65 17.45 -0.20 18.05 -0.40 18.65 -5.01 1 -6.82 -2.41 -8.22 -20.86 -8.22 -28.48 0 -50.15 10.43 -76.22 37.11 -13.44 13.84 -14.44 14.44 -19.06 11.83 -2.61 -1.40 -9.63 -2.61 -15.65 -2.81 -14.64 0 -22.47 5.22 -29.49 19.06 l-5.22 10.83 -6.42 -4.81 c-17.05 -13.04 -42.72 -15.85 -61.18 -6.62 l-10.23 5.01 -8.42 -11.23 c-30.29 -40.72 -129.38 -123.76 -175.31 -146.83 -27.48 -13.84 -27.68 -13.84 -26.28 13.84 1 22.87 4.61 38.91 11.83 53.96 l4.61 9.43 51.35 20.46 c81.84 32.49 117.74 51.15 143.22 74.01 l10.03 9.23 -31.09 -16.05 c-37.31 -19.26 -78.03 -37.51 -124.96 -56.16 -71.61 -28.68 -107.71 -38.71 -140.81 -39.11 l-20.06 -0.20 0.40 9.63 c0.60 20.26 20.66 51.35 47.74 74.22 17.45 14.64 55.16 33.50 80.23 39.92 16.65 4.21 22.47 4.61 71.21 4.61 29.28 0.20 54.76 1 56.76 1.81 2.61 1.20 3.41 3.21 2.81 6.02 -0.60 2.41 -2.61 10.83 -4.61 18.85 l-3.61 14.44 -12.03 0 c-23.27 0 -49.14 11.83 -57.17 26.48 -3.01 5.01 -2.81 5.82 3.21 14.04 11.63 16.05 32.09 27.68 66.79 37.51 5.42 1.60 2.01 2.01 -16.05 1.60 -21.66 -0.60 -23.87 -1 -38.11 -7.62 -8.22 -4.01 -19.26 -10.43 -24.67 -14.64 -6.42 -4.81 -9.83 -6.42 -10.43 -4.81 -5.62 15.24 -7.02 21.46 -7.02 28.88 0 8.22 0.60 9.23 10.63 16.65 13.64 10.43 36.31 19.86 57.57 24.27 l17.05 3.41 -8.02 2.41 c-20.66 5.82 -50.55 4.21 -68.80 -3.81 -5.01 -2.21 -9.43 -3.61 -9.83 -3.21 -1.81 1.60 7.42 33.90 10.63 37.51 5.22 5.82 29.08 10.63 46.74 9.23 l15.24 -1.20 -5.01 4.21 c-7.82 6.42 -22.87 13.44 -31.89 14.84 -4.61 0.80 -8.22 2.01 -8.22 2.81 0 0.80 3.81 6.82 8.63 13.44 8.83 11.83 24.27 26.68 42.52 40.52 10.83 8.42 51.75 32.49 52.95 31.29 0.40 -0.40 -2.61 -5.42 -6.82 -11.03z m61.18 -14.04 c20.46 -3.21 51.35 -13.44 73.21 -24.27 60.78 -29.69 113.53 -92.07 132.18 -156.85 12.64 -43.53 11.23 -94.88 -4.01 -141.21 -4.81 -14.84 -6.02 -16.45 -11.43 -17.45 -16.45 -3.21 -38.71 0.60 -36.91 6.42 0.60 1.81 3.81 10.83 7.22 19.86 9.63 26.28 12.84 47.54 11.63 77.83 -1.20 29.69 -5.22 46.53 -17.25 72.41 -10.23 21.66 -20.86 36.91 -39.31 56.56 -44.33 47.14 -101.29 70.81 -163.88 68 -23.47 -1 -23.67 -1 -23.67 3.41 0 5.82 7.02 26.48 11.03 32.69 3.01 4.41 4.41 4.61 25.67 4.61 12.24 0 28.28 -1 35.50 -2.01z m-148.83 -31.89 c-16.25 -17.45 -25.27 -33.30 -22.06 -38.51 2.01 -3.21 1.40 -4.21 -3.81 -6.82 -4.61 -2.41 -8.02 -7.02 -12.84 -17.65 -3.61 -8.02 -9.43 -17.05 -12.84 -20.46 -3.61 -3.21 -11.03 -13.24 -16.65 -21.86 -30.89 -48.14 -38.91 -90.06 -28.48 -149.83 l1.20 -7.22 -17.65 -9.43 c-10.03 -5.42 -18.25 -8.63 -19.26 -7.62 -1 1 -3.61 10.23 -5.82 20.66 -5.22 24.07 -5.62 68.20 -1 89.46 15.85 73.61 65.99 139.60 132.58 174.51 8.83 4.61 16.85 8.63 17.65 8.63 1 0 -4.01 -6.22 -11.03 -13.84z m323.34 -341.19 c4.81 -1.60 4.81 -1.60 -1 -1.81 -3.21 0 -7.42 0.80 -9.03 1.81 -2.41 1.60 -2.21 2.01 1 1.81 2.21 -0.20 6.22 -1 9.03 -1.81z m-39.72 -18.45 c7.22 -4.81 14.64 -9.63 16.85 -10.83 3.41 -2.01 2.01 -4.01 -15.24 -21.06 -28.88 -28.68 -60.17 -47.94 -98.49 -60.78 -47.94 -15.85 -101.69 -16.25 -148.83 -0.80 -16.25 5.22 -49.54 19.86 -49.54 21.66 0 0.80 7.62 7.42 17.05 14.64 l16.85 13.24 13.64 -5.01 c34.90 -13.24 76.22 -17.25 110.72 -11.03 41.72 7.42 84.24 29.89 112.73 58.97 4.81 5.01 9.43 9.23 10.03 9.23 0.80 0.20 7.02 -3.61 14.24 -8.22z"/>
  <path d="M1129.27 1170.39 l0 -13.04 7.62 0 c9.43 0 14.44 4.81 14.44 13.44 0 7.82 -5.62 12.64 -14.64 12.64 l-7.42 0 0 -13.04z"/>
  <path d="M1645.17 1181.02 c-8.02 -9.83 -3.01 -23.67 8.63 -23.67 11.23 0 17.45 9.63 12.64 19.46 -2.21 4.61 -4.21 5.82 -10.83 6.22 -5.01 0.40 -9.03 -0.40 -10.43 -2.01z"/>
  <path d="M1546.48 1174.60 c0 -2.81 4.81 -13.24 6.02 -13.24 2.01 0 6.02 11.23 4.61 12.84 -1.40 1.20 -10.63 1.60 -10.63 0.40z"/>
  <path d="M1409.08 1068.30 c-14.64 -6.42 -20.86 -22.06 -14.04 -35.10 3.21 -6.42 14.04 -16.25 17.85 -16.25 1.40 0 12.24 9.43 24.47 21.06 l21.86 21.06 -4.61 4.01 c-9.23 7.82 -33.30 10.63 -45.53 5.22z"/>
  <path d="M1423.73 966.60 c-5.62 -3.21 -11.63 -14.84 -11.63 -22.67 0 -5.22 1.40 -8.83 5.01 -12.24 10.23 -10.43 33.10 -3.81 33.10 9.43 0 12.24 -18.45 30.09 -26.48 25.47z"/>
  <path d="M1558.92 551.40 c-18.45 -11.83 -26.28 -49.34 -11.03 -53.15 11.43 -3.01 23.87 15.04 26.08 37.91 1.81 19.26 -2.41 23.27 -15.04 15.24z"/>
 </g>
</svg>